<svg width="1053" height="321" viewBox="0 0 1053 321" fill="none" xmlns="http://www.w3.org/2000/svg">
<path d="M458.5 145C497.988 145 530 113.212 530 74C530 34.7878 497.988 3 458.5 3C419.012 3 387 34.7878 387 74C387 113.212 419.012 145 458.5 145Z" fill="#D3DEE7"/>
<path d="M444.309 76.9834H464.585" stroke="#D3DEE7" stroke-width="3" stroke-miterlimit="10" stroke-linecap="round"/>
<path d="M444.309 82.8203H464.585" stroke="#D3DEE7" stroke-width="3" stroke-miterlimit="10" stroke-linecap="round"/>
<path d="M444.309 88.6572H464.585" stroke="#D3DEE7" stroke-width="3" stroke-miterlimit="10" stroke-linecap="round"/>
<path d="M861 168.97V157.602C861 155.434 859.43 153.355 856.635 151.822C853.84 150.29 850.049 149.429 846.096 149.429H793.492C791.534 149.429 789.596 149.217 787.788 148.806C785.98 148.396 784.337 147.794 782.953 147.035C781.569 146.276 780.471 145.375 779.722 144.383C778.973 143.391 778.588 142.329 778.588 141.255V129.888C778.588 128.814 778.973 127.751 779.722 126.76C780.471 125.768 781.569 124.867 782.953 124.108C784.337 123.349 785.98 122.747 787.788 122.336C789.596 121.926 791.534 121.714 793.492 121.714H795.153C799.105 121.714 802.896 120.853 805.691 119.32C808.486 117.788 810.056 115.709 810.056 113.541V102.173C810.056 100.006 808.486 97.9267 805.691 96.3939C802.896 94.8611 799.105 94 795.153 94H314.402C310.45 94 306.659 94.8611 303.864 96.3939C301.069 97.9267 299.499 100.006 299.499 102.173V113.541C299.499 115.709 301.069 117.788 303.864 119.32C306.659 120.853 310.45 121.714 314.402 121.714C318.355 121.714 322.146 122.575 324.941 124.108C327.736 125.641 329.306 127.72 329.306 129.888V141.255C329.306 143.423 327.736 145.502 324.941 147.035C322.146 148.567 318.355 149.429 314.402 149.429H256.769C252.816 149.429 249.025 150.29 246.23 151.822C243.435 153.355 241.865 155.434 241.865 157.602V168.97C241.865 171.137 243.435 173.216 246.23 174.749C249.025 176.282 252.816 177.143 256.769 177.143H279.383C283.336 177.143 287.127 178.004 289.922 179.537C292.717 181.07 294.287 183.148 294.287 185.316V196.684C294.287 198.852 292.717 200.93 289.922 202.463C287.127 203.996 283.336 204.857 279.383 204.857H279.329C275.376 204.857 271.585 205.718 268.79 207.251C265.995 208.784 264.425 210.863 264.425 213.03V224.398C264.425 226.566 265.995 228.645 268.79 230.177C271.585 231.71 275.376 232.571 279.329 232.571H282.601C284.558 232.571 286.496 232.783 288.304 233.194C290.112 233.604 291.755 234.206 293.139 234.965C294.523 235.724 295.621 236.625 296.37 237.617C297.119 238.609 297.504 239.671 297.504 240.745V252.112C297.504 253.186 297.119 254.249 296.37 255.24C295.621 256.232 294.523 257.133 293.139 257.892C291.755 258.651 290.112 259.253 288.304 259.664C286.496 260.074 284.558 260.286 282.601 260.286H228.904C224.951 260.286 221.16 261.147 218.365 262.68C215.57 264.212 214 266.291 214 268.459V279.827C214 280.9 214.385 281.963 215.134 282.954C215.883 283.946 216.981 284.847 218.365 285.606C219.749 286.365 221.392 286.967 223.2 287.378C225.008 287.789 226.946 288 228.904 288H803.154C807.107 288 810.897 287.139 813.692 285.606C816.487 284.073 818.058 281.994 818.058 279.827V268.459C818.058 266.291 816.487 264.212 813.692 262.68C810.897 261.147 807.107 260.286 803.154 260.286H790.232C788.275 260.286 786.336 260.074 784.528 259.664C782.72 259.253 781.077 258.651 779.693 257.892C778.309 257.133 777.211 256.232 776.463 255.24C775.714 254.249 775.328 253.186 775.328 252.112V240.745C775.328 239.671 775.714 238.609 776.463 237.617C777.211 236.625 778.309 235.724 779.693 234.965C781.077 234.206 782.72 233.604 784.528 233.194C786.336 232.783 788.275 232.571 790.232 232.571H820.701C824.654 232.571 828.444 231.71 831.239 230.177C834.034 228.645 835.605 226.566 835.605 224.398V213.03C835.605 211.957 835.219 210.894 834.47 209.903C833.721 208.911 832.623 208.01 831.239 207.251C829.855 206.492 828.213 205.89 826.404 205.479C824.596 205.069 822.658 204.857 820.701 204.857H811.458C807.505 204.857 803.714 203.996 800.92 202.463C798.125 200.93 796.554 198.852 796.554 196.684V185.316C796.554 183.148 798.125 181.07 800.92 179.537C803.714 178.004 807.505 177.143 811.458 177.143H846.096C850.049 177.143 853.84 176.282 856.635 174.749C859.43 173.216 861 171.137 861 168.97Z" fill="#D3DEE7"/>
<path d="M622.109 32.543H464.513C461.393 32.543 458.863 35.0692 458.863 38.1855V274.271C458.863 277.387 461.393 279.914 464.513 279.914H622.109C625.229 279.914 627.758 277.387 627.758 274.271V38.1855C627.758 35.0692 625.229 32.543 622.109 32.543Z" fill="#1260A0"/>
<path d="M611.908 44.6475H474.714C471.594 44.6475 469.064 47.1737 469.064 50.29V262.168C469.064 265.285 471.594 267.811 474.714 267.811H611.908C615.028 267.811 617.558 265.285 617.558 262.168V50.29C617.558 47.1737 615.028 44.6475 611.908 44.6475Z" fill="#DBE8EC"/>
<path d="M543.312 133.266C558.684 133.266 571.146 120.819 571.146 105.465C571.146 90.111 558.684 77.6641 543.312 77.6641C527.94 77.6641 515.479 90.111 515.479 105.465C515.479 120.819 527.94 133.266 543.312 133.266Z" fill="#FFBFC7"/>
<path d="M538.635 103.041V97.2601C538.635 96.6805 538.75 96.1066 538.973 95.5716C539.197 95.0366 539.524 94.5511 539.936 94.1431C540.348 93.7352 540.838 93.4129 541.375 93.1948C541.913 92.9768 542.489 92.8673 543.069 92.8727H543.552C544.132 92.867 544.708 92.9764 545.246 93.1944C545.783 93.4123 546.273 93.7346 546.685 94.1426C547.097 94.5506 547.425 95.0362 547.648 95.5713C547.871 96.1064 547.986 96.6804 547.986 97.2601V99.2075C547.987 99.3381 548.039 99.4631 548.131 99.5557C548.224 99.6483 548.348 99.7011 548.479 99.7028L550.814 99.7134C550.88 99.7136 550.944 99.701 551.005 99.6762C551.065 99.6515 551.12 99.6151 551.166 99.569C551.213 99.523 551.249 99.4684 551.275 99.4081C551.3 99.3479 551.313 99.2833 551.313 99.2181V97.5824C551.313 96.5789 551.115 95.5853 550.731 94.6583C550.346 93.7312 549.782 92.8891 549.071 92.1799C548.361 91.4708 547.517 90.9086 546.588 90.5255C545.66 90.1424 544.665 89.9459 543.66 89.9473H542.961C541.956 89.9464 540.962 90.1432 540.033 90.5265C539.105 90.9098 538.262 91.4721 537.551 92.1812C536.841 92.8903 536.277 93.7323 535.893 94.659C535.508 95.5858 535.31 96.5792 535.311 97.5824V103.195L538.635 103.041Z" fill="#0E538C"/>
<path d="M552.417 119.664C553.002 119.662 553.562 119.43 553.975 119.017C554.389 118.604 554.621 118.044 554.623 117.461V104.932C554.621 104.348 554.389 103.788 553.975 103.375C553.562 102.963 553.002 102.73 552.417 102.729H534.206C533.621 102.73 533.061 102.963 532.648 103.375C532.234 103.788 532.001 104.348 532 104.932V117.461C532.001 118.044 532.234 118.604 532.648 119.017C533.061 119.43 533.621 119.662 534.206 119.664L552.417 119.664Z" fill="#1260A0"/>
<path d="M543.311 107.026C542.685 107.028 542.085 107.278 541.642 107.72C541.2 108.162 540.95 108.762 540.948 109.387C540.959 109.742 541.051 110.09 541.218 110.404C541.384 110.718 541.621 110.99 541.909 111.198V113.968C541.909 114.34 542.057 114.696 542.32 114.958C542.583 115.221 542.939 115.369 543.311 115.369C543.683 115.369 544.04 115.221 544.303 114.958C544.566 114.696 544.713 114.34 544.713 113.968V111.198C545.001 110.989 545.237 110.717 545.404 110.404C545.57 110.09 545.663 109.742 545.674 109.387C545.672 108.762 545.422 108.163 544.98 107.72C544.537 107.278 543.937 107.028 543.311 107.026V107.026ZM469.064 236.688V263.083C469.064 263.703 469.187 264.318 469.425 264.892C469.663 265.465 470.011 265.987 470.451 266.426C470.89 266.865 471.412 267.213 471.987 267.451C472.561 267.688 473.176 267.811 473.798 267.811H612.824C613.446 267.811 614.061 267.688 614.636 267.451C615.21 267.213 615.732 266.865 616.171 266.426C616.611 265.987 616.96 265.465 617.197 264.892C617.435 264.318 617.558 263.703 617.558 263.083V236.688H469.064ZM617.558 49.3755C617.558 48.7546 617.435 48.1398 617.197 47.5662C616.96 46.9925 616.611 46.4713 616.171 46.0323C615.732 45.5932 615.21 45.245 614.636 45.0074C614.061 44.7698 613.446 44.6475 612.824 44.6475H473.798C473.176 44.6475 472.561 44.7698 471.987 45.0074C471.412 45.245 470.89 45.5932 470.451 46.0323C470.011 46.4713 469.663 46.9925 469.425 47.5662C469.187 48.1398 469.064 48.7546 469.064 49.3755V58.8316H617.558V49.3755Z" fill="#0E538C"/>
<path d="M543.312 52.5898C547.704 52.5898 551.264 49.0337 551.264 44.647C551.264 40.2602 547.704 36.7041 543.312 36.7041C538.92 36.7041 535.359 40.2602 535.359 44.647C535.359 49.0337 538.92 52.5898 543.312 52.5898Z" fill="#FFBFC7"/>
<path d="M543.312 260.191C547.704 260.191 551.264 256.635 551.264 252.249C551.264 247.862 547.704 244.306 543.312 244.306C538.92 244.306 535.359 247.862 535.359 252.249C535.359 256.635 538.92 260.191 543.312 260.191Z" fill="#FFBFC7"/>
<path d="M528.933 142.99H486.877C485.837 142.99 484.994 143.832 484.994 144.871V157.085C484.994 158.124 485.837 158.966 486.877 158.966H528.933C529.973 158.966 530.816 158.124 530.816 157.085V144.871C530.816 143.832 529.973 142.99 528.933 142.99Z" fill="#FFBFC7"/>
<path d="M600.126 142.99H548.225C547.185 142.99 546.342 143.832 546.342 144.871V214.526C546.342 215.564 547.185 216.406 548.225 216.406H600.126C601.166 216.406 602.009 215.564 602.009 214.526V144.871C602.009 143.832 601.166 142.99 600.126 142.99Z" fill="#E2042E"/>
<path d="M528.933 171.711H486.877C485.837 171.711 484.994 172.553 484.994 173.592V185.805C484.994 186.844 485.837 187.686 486.877 187.686H528.933C529.973 187.686 530.816 186.844 530.816 185.805V173.592C530.816 172.553 529.973 171.711 528.933 171.711Z" fill="#FFBFC7"/>
<path d="M528.933 200.432H486.877C485.837 200.432 484.994 201.274 484.994 202.313V214.526C484.994 215.565 485.837 216.407 486.877 216.407H528.933C529.973 216.407 530.816 215.565 530.816 214.526V202.313C530.816 201.274 529.973 200.432 528.933 200.432Z" fill="#FFBFC7"/>
<path d="M574.174 195.336H558.133C557.823 195.336 557.519 195.254 557.251 195.1C556.983 194.945 556.76 194.723 556.605 194.455C556.451 194.187 556.369 193.883 556.369 193.574C556.369 193.265 556.451 192.961 556.605 192.693L564.626 178.818L572.646 164.942C572.801 164.675 573.024 164.452 573.292 164.298C573.56 164.143 573.864 164.062 574.174 164.062C574.483 164.062 574.788 164.143 575.056 164.298C575.324 164.452 575.547 164.675 575.701 164.942L583.722 178.818L591.742 192.693C591.897 192.961 591.978 193.265 591.978 193.574C591.978 193.883 591.897 194.187 591.742 194.455C591.587 194.723 591.365 194.945 591.096 195.1C590.828 195.254 590.524 195.336 590.214 195.336H574.174Z" fill="#FFBFC7"/>
<path d="M575.058 172.277C575.058 171.79 574.663 171.396 574.175 171.396C573.688 171.396 573.293 171.79 573.293 172.277V185.417C573.293 185.904 573.688 186.298 574.175 186.298C574.663 186.298 575.058 185.904 575.058 185.417V172.277Z" fill="#0E538C"/>
<path d="M576.275 190.416C576.389 189.257 575.542 188.225 574.382 188.11C573.222 187.995 572.188 188.842 572.073 190C571.958 191.159 572.806 192.192 573.966 192.306C575.126 192.421 576.16 191.575 576.275 190.416Z" fill="#0E538C"/>
<path d="M437.251 237.486V222.73C437.251 221.251 437.544 219.786 438.115 218.42C438.685 217.055 439.52 215.815 440.572 214.774C441.625 213.733 442.873 212.91 444.246 212.354C445.618 211.797 447.088 211.518 448.569 211.531H449.801C451.282 211.517 452.752 211.796 454.124 212.353C455.497 212.909 456.746 213.732 457.798 214.773C458.851 215.814 459.686 217.054 460.256 218.42C460.826 219.785 461.12 221.251 461.119 222.73V227.701C461.122 228.034 461.255 228.353 461.49 228.59C461.726 228.826 462.044 228.961 462.378 228.965L468.338 228.992C468.505 228.993 468.67 228.961 468.824 228.897C468.979 228.834 469.119 228.741 469.237 228.624C469.355 228.506 469.449 228.367 469.513 228.213C469.577 228.059 469.611 227.894 469.611 227.728V223.553C469.611 220.992 469.106 218.455 468.125 216.089C467.143 213.723 465.704 211.573 463.89 209.763C462.075 207.953 459.922 206.518 457.552 205.54C455.182 204.562 452.642 204.061 450.078 204.064H448.292C445.729 204.062 443.19 204.565 440.82 205.543C438.451 206.521 436.299 207.957 434.485 209.766C432.672 211.576 431.233 213.726 430.252 216.091C429.27 218.457 428.765 220.992 428.766 223.553V237.88L437.251 237.486Z" fill="#E2042E"/>
<path d="M472.431 279.914C473.923 279.911 475.353 279.317 476.408 278.263C477.463 277.21 478.057 275.782 478.061 274.291V242.312C478.057 240.821 477.463 239.393 476.408 238.34C475.353 237.286 473.923 236.692 472.431 236.688H425.946C424.454 236.692 423.024 237.286 421.969 238.34C420.914 239.393 420.32 240.821 420.316 242.312V274.291C420.32 275.782 420.914 277.21 421.969 278.263C423.024 279.317 424.454 279.911 425.946 279.914H472.431Z" fill="#FFBFC7"/>
<path d="M449.19 247.658C447.591 247.664 446.06 248.3 444.93 249.429C443.8 250.558 443.163 252.088 443.158 253.684C443.186 254.59 443.421 255.478 443.846 256.28C444.271 257.081 444.875 257.774 445.61 258.306V265.377C445.612 266.324 445.989 267.232 446.66 267.902C447.331 268.571 448.241 268.947 449.19 268.947C450.138 268.947 451.048 268.571 451.719 267.902C452.39 267.232 452.768 266.324 452.769 265.377V258.306C453.503 257.773 454.106 257.08 454.531 256.279C454.956 255.478 455.192 254.59 455.221 253.684C455.216 252.088 454.579 250.558 453.449 249.429C452.319 248.3 450.788 247.664 449.19 247.658Z" fill="#E2042E"/>
<path d="M366.949 268.96H387.226" stroke="#D3DEE7" stroke-width="3" stroke-miterlimit="10" stroke-linecap="round"/>
<path d="M366.949 274.797H387.226" stroke="#D3DEE7" stroke-width="3" stroke-miterlimit="10" stroke-linecap="round"/>
<path d="M366.949 280.635H387.226" stroke="#D3DEE7" stroke-width="3" stroke-miterlimit="10" stroke-linecap="round"/>
<path d="M637.348 178.077H657.624" stroke="#D3DEE7" stroke-width="3" stroke-miterlimit="10" stroke-linecap="round"/>
<path d="M637.348 183.914H657.624" stroke="#D3DEE7" stroke-width="3" stroke-miterlimit="10" stroke-linecap="round"/>
<path d="M637.348 189.752H657.624" stroke="#D3DEE7" stroke-width="3" stroke-miterlimit="10" stroke-linecap="round"/>
<path d="M413.605 200.842C419.3 200.842 423.916 196.231 423.916 190.543C423.916 184.854 419.3 180.243 413.605 180.243C407.91 180.243 403.293 184.854 403.293 190.543C403.293 196.231 407.91 200.842 413.605 200.842Z" fill="#D3DEE7"/>
<path d="M414.024 174.907C416.99 174.907 419.395 172.505 419.395 169.543C419.395 166.58 416.99 164.178 414.024 164.178C411.057 164.178 408.652 166.58 408.652 169.543C408.652 172.505 411.057 174.907 414.024 174.907Z" fill="#D3DEE7"/>
<path d="M449.797 177.321C452.365 177.321 454.446 175.242 454.446 172.677C454.446 170.113 452.365 168.034 449.797 168.034C447.23 168.034 445.148 170.113 445.148 172.677C445.148 175.242 447.23 177.321 449.797 177.321Z" fill="#D3DEE7"/>
<path d="M432.885 171.26C434.597 171.26 435.984 169.874 435.984 168.165C435.984 166.456 434.597 165.07 432.885 165.07C431.174 165.07 429.787 166.456 429.787 168.165C429.787 169.874 431.174 171.26 432.885 171.26Z" fill="#D3DEE7"/>
<path d="M436.486 192.475C440.588 192.475 443.914 189.154 443.914 185.056C443.914 180.959 440.588 177.638 436.486 177.638C432.384 177.638 429.059 180.959 429.059 185.056C429.059 189.154 432.384 192.475 436.486 192.475Z" fill="#D3DEE7"/>
<path d="M661.884 277.301C667.579 277.301 672.196 272.69 672.196 267.002C672.196 261.313 667.579 256.702 661.884 256.702C656.189 256.702 651.572 261.313 651.572 267.002C651.572 272.69 656.189 277.301 661.884 277.301Z" fill="#D3DEE7"/>
<path d="M640.059 277.443C643.025 277.443 645.43 275.041 645.43 272.078C645.43 269.115 643.025 266.713 640.059 266.713C637.092 266.713 634.688 269.115 634.688 272.078C634.688 275.041 637.092 277.443 640.059 277.443Z" fill="#D3DEE7"/>
<path d="M640.058 257.779C644.16 257.779 647.486 254.457 647.486 250.36C647.486 246.263 644.16 242.941 640.058 242.941C635.956 242.941 632.631 246.263 632.631 250.36C632.631 254.457 635.956 257.779 640.058 257.779Z" fill="#D3DEE7"/>
<path d="M662.726 94.6412C668.421 94.6412 673.038 90.0299 673.038 84.3416C673.038 78.6533 668.421 74.042 662.726 74.042C657.031 74.042 652.414 78.6533 652.414 84.3416C652.414 90.0299 657.031 94.6412 662.726 94.6412Z" fill="#D3DEE7"/>
<path d="M642.27 99.2845C644.837 99.2845 646.918 97.2056 646.918 94.6413C646.918 92.0769 644.837 89.998 642.27 89.998C639.702 89.998 637.621 92.0769 637.621 94.6413C637.621 97.2056 639.702 99.2845 642.27 99.2845Z" fill="#D3DEE7"/>
<path d="M636.572 84.3414C640.674 84.3414 644 81.0199 644 76.9226C644 72.8254 640.674 69.5039 636.572 69.5039C632.47 69.5039 629.145 72.8254 629.145 76.9226C629.145 81.0199 632.47 84.3414 636.572 84.3414Z" fill="#D3DEE7"/>
<path d="M376.581 246.137C382.276 246.137 386.893 241.526 386.893 235.838C386.893 230.149 382.276 225.538 376.581 225.538C370.886 225.538 366.27 230.149 366.27 235.838C366.27 241.526 370.886 246.137 376.581 246.137Z" fill="#AEC0CE"/>
<path d="M765.312 178.599C771.007 178.599 775.623 173.988 775.623 168.3C775.623 162.611 771.007 158 765.312 158C759.617 158 755 162.611 755 168.3C755 173.988 759.617 178.599 765.312 178.599Z" fill="#AEC0CE"/>
<path d="M707.427 194.837C711.53 194.837 714.855 191.516 714.855 187.419C714.855 183.321 711.53 180 707.427 180C703.325 180 700 183.321 700 187.419C700 191.516 703.325 194.837 707.427 194.837Z" fill="#AEC0CE"/>
<path d="M350.427 235.837C354.53 235.837 357.855 232.516 357.855 228.419C357.855 224.321 354.53 221 350.427 221C346.325 221 343 224.321 343 228.419C343 232.516 346.325 235.837 350.427 235.837Z" fill="#AEC0CE"/>
</svg>
