<svg width="114" height="114" viewBox="0 0 114 114" fill="none" xmlns="http://www.w3.org/2000/svg">
<circle cx="57" cy="57" r="56" stroke="#E2042E" stroke-width="2" stroke-dasharray="4 4"/>
<g clip-path="url(#clip0_3923_6722)">
<path d="M79.3955 87.8142H79.3978V87.7142V26.9733C79.3978 25.7216 78.3801 24.7039 77.1284 24.7039H36.1824C34.9307 24.7039 33.913 25.7216 33.913 26.9733V87.7142C33.913 88.9659 34.9307 89.9836 36.1824 89.9836H77.1283C78.3464 89.9836 79.343 89.0197 79.3955 87.8142ZM36.1824 22.7346H77.1283C79.4654 22.7346 81.3669 24.6362 81.367 26.9733V87.7142C81.367 90.0512 79.4655 91.9529 77.1284 91.9529H36.1824C33.8454 91.9529 31.9438 90.0514 31.9438 87.7142V26.9733C31.9438 24.6363 33.8453 22.7346 36.1824 22.7346Z" fill="#313131" stroke="white" stroke-width="0.2"/>
<path d="M44.2504 47.6633L44.0919 47.886L44.3278 48.0241C45.5615 48.7459 46.954 49.142 48.4242 49.142C49.8971 49.142 51.2869 48.7465 52.5124 48.026L52.7473 47.8879L52.5895 47.6657C51.6254 46.3085 50.1056 45.4855 48.4242 45.4855C46.7388 45.4855 45.2159 46.3073 44.2504 47.6633ZM53.8907 46.6252L54.0653 46.8649L54.272 46.6522C55.7405 45.141 56.5708 43.1423 56.5708 40.9954C56.5708 36.5089 52.9159 32.8599 48.4242 32.8599C43.9269 32.8599 40.267 36.5086 40.267 40.9953C40.267 43.1438 41.0985 45.1438 42.5658 46.653L42.7724 46.8655L42.947 46.626C44.2265 44.871 46.219 43.8161 48.4242 43.8161C50.6237 43.8161 52.6123 44.8706 53.8907 46.6252ZM58.2402 40.9954C58.2402 46.5083 53.7686 50.8114 48.4242 50.8114C43.0287 50.8114 38.5977 46.471 38.5977 40.9954C38.5977 35.5899 43.0056 31.1906 48.4242 31.1906C53.8369 31.1906 58.2402 35.5897 58.2402 40.9954Z" fill="#313131" stroke="white" stroke-width="0.5"/>
<path d="M48.4189 42.8979C50.3865 42.8979 51.9875 41.2969 51.9875 39.3294C51.9875 37.3618 50.3865 35.7608 48.4189 35.7608C46.4514 35.7608 44.8504 37.3618 44.8504 39.3294C44.8504 41.2969 46.4514 42.8979 48.4189 42.8979ZM48.4189 37.93C49.1906 37.93 49.8181 38.5577 49.8181 39.3292C49.8181 40.1008 49.1905 40.7284 48.4189 40.7284C47.6474 40.7284 47.0197 40.1008 47.0197 39.3292C47.0196 38.5444 47.634 37.93 48.4189 37.93ZM73.8788 34.7401H64.1221C63.5231 34.7401 63.0374 35.2258 63.0374 35.8248C63.0374 36.4238 63.5231 36.9095 64.1221 36.9095H73.8788C74.4778 36.9095 74.9635 36.4238 74.9635 35.8248C74.9635 35.2258 74.4778 34.7401 73.8788 34.7401ZM73.8788 39.9166H64.1221C63.5231 39.9166 63.0374 40.4023 63.0374 41.0013C63.0374 41.6003 63.5231 42.086 64.1221 42.086H73.8788C74.4778 42.086 74.9635 41.6003 74.9635 41.0013C74.9635 40.4023 74.4778 39.9166 73.8788 39.9166ZM73.8788 45.0927H64.1221C63.5231 45.0927 63.0374 45.5783 63.0374 46.1774C63.0374 46.7764 63.5231 47.262 64.1221 47.262H73.8788C74.4778 47.262 74.9635 46.7764 74.9635 46.1774C74.9635 45.5783 74.4778 45.0927 73.8788 45.0927ZM73.8788 58.1488H39.4323C38.8333 58.1488 38.3477 58.6345 38.3477 59.2335C38.3477 59.8325 38.8333 60.3182 39.4323 60.3182H73.8788C74.4778 60.3182 74.9635 59.8325 74.9635 59.2335C74.9635 58.6345 74.4778 58.1488 73.8788 58.1488ZM73.8788 65.9581H39.4323C38.8333 65.9581 38.3477 66.4437 38.3477 67.0428C38.3477 67.6418 38.8333 68.1275 39.4323 68.1275H73.8788C74.4778 68.1275 74.9635 67.6418 74.9635 67.0428C74.9635 66.4437 74.4778 65.9581 73.8788 65.9581ZM73.8788 73.7678H39.4323C38.8333 73.7678 38.3477 74.2534 38.3477 74.8525C38.3477 75.4515 38.8333 75.9371 39.4323 75.9371H73.8788C74.4778 75.9371 74.9635 75.4515 74.9635 74.8525C74.9635 74.2534 74.4778 73.7678 73.8788 73.7678ZM56.8738 81.5776H39.4323C38.8333 81.5776 38.3477 82.0632 38.3477 82.6623C38.3477 83.2613 38.8333 83.747 39.4323 83.747H56.8738C57.4728 83.747 57.9585 83.2613 57.9585 82.6623C57.9585 82.0632 57.4728 81.5776 56.8738 81.5776Z" fill="#313131"/>
</g>
<defs>
<clipPath id="clip0_3923_6722">
<rect width="69.4375" height="69.4375" fill="white" transform="translate(21.9375 22.625)"/>
</clipPath>
</defs>
</svg>
