<svg width="114" height="113" viewBox="0 0 114 113" fill="none" xmlns="http://www.w3.org/2000/svg">
<path d="M57.3216 68.9459C49.9635 68.9459 44.1855 63.168 44.1855 55.8098C44.1855 48.4517 49.9635 42.6738 57.3216 42.6738C64.6797 42.6738 70.4576 48.4517 70.4576 55.8098C70.4576 63.168 64.6797 68.9459 57.3216 68.9459ZM57.3216 44.851C51.2937 44.851 46.3628 49.7819 46.3628 55.8098C46.3628 61.8378 51.2937 66.7687 57.3216 66.7687C63.3495 66.7687 68.2804 61.8378 68.2804 55.8098C68.2804 49.7819 63.3495 44.851 57.3216 44.851ZM61.3374 26.1106H53.3058C52.961 26.1106 52.6931 25.9967 52.5121 25.8157C52.331 25.6346 52.2172 25.3667 52.2172 25.022C52.2172 24.6772 52.331 24.4093 52.5121 24.2282C52.6931 24.0472 52.961 23.9333 53.3058 23.9333H61.3374C61.6822 23.9333 61.9501 24.0472 62.1311 24.2282C62.3122 24.4093 62.426 24.6772 62.426 25.022C62.426 25.3667 62.3122 25.6346 62.1311 25.8157C61.9501 25.9967 61.6822 26.1106 61.3374 26.1106Z" fill="#313131" stroke="white" stroke-width="0.5"/>
<path d="M56.474 49.8081L56.4558 49.7718L56.4278 49.7438L56.4276 49.7436L56.4274 49.7434L56.4273 49.7433L56.4272 49.7432L56.4271 49.7431L56.427 49.743L56.4216 49.7373C56.4164 49.7318 56.4084 49.7229 56.3983 49.7112C56.3781 49.6876 56.3511 49.6538 56.3245 49.6139C56.2659 49.526 56.2326 49.4432 56.2326 49.3845V48.849V48.3136C56.2326 48.3123 56.2326 48.3111 56.2326 48.3099C56.2325 48.2892 56.2324 48.2835 56.2933 48.2226L56.2985 48.2175C56.3557 48.1604 56.4519 48.0644 56.487 47.9046C56.5965 47.8245 56.7808 47.7359 56.9803 47.686C57.0976 47.6567 57.2038 47.6451 57.2867 47.651C57.3728 47.6572 57.4046 47.6796 57.4122 47.6872L57.4854 47.7604H57.589C57.5902 47.7604 57.5915 47.7604 57.5926 47.7604C57.6134 47.7602 57.619 47.7602 57.6799 47.8211L57.6851 47.8263C57.7424 47.8837 57.839 47.9805 57.9999 48.0152C58.0155 48.0349 58.033 48.0582 58.0503 48.0842C58.1089 48.1721 58.1421 48.2549 58.1421 48.3136V49.3845C58.1421 49.3857 58.1421 49.387 58.1422 49.3881C58.1423 49.4089 58.1424 49.4145 58.0815 49.4754L58.0763 49.4806C58.0053 49.5514 57.8744 49.6821 57.8744 49.9199C57.8744 50.0103 57.8526 50.0572 57.8339 50.0831C57.8141 50.1105 57.7823 50.1355 57.7304 50.1563C57.6151 50.2024 57.4636 50.2054 57.3213 50.2054C57.0412 50.2054 56.6667 50.1935 56.474 49.8081ZM43.3998 25.8428H43.2962L43.2236 25.9153L43.2235 25.9155L43.2235 25.9155L43.2233 25.9157L43.2231 25.9158L43.2231 25.9159L43.2228 25.9161L43.2172 25.9215C43.2116 25.9267 43.2027 25.9348 43.1911 25.9448C43.1674 25.965 43.1337 25.992 43.0938 26.0186C43.0058 26.0772 42.923 26.1105 42.8643 26.1105H42.5966H42.0612C42.0599 26.1105 42.0587 26.1105 42.0575 26.1105C42.0368 26.1107 42.0311 26.1107 41.9702 26.0499C41.9685 26.0482 41.9668 26.0464 41.965 26.0447C41.9074 25.9869 41.81 25.8893 41.6473 25.8551C41.5116 25.6878 41.508 25.5252 41.508 25.2896V24.7542C41.508 24.7529 41.508 24.7517 41.508 24.7505C41.5078 24.7298 41.5078 24.7241 41.5686 24.6632C41.5703 24.6615 41.5721 24.6598 41.5738 24.658C41.6319 24.6001 41.7301 24.5021 41.7639 24.3381C42.1989 23.9586 42.8052 23.9777 43.223 24.3955C43.4881 24.6606 43.6852 24.8641 43.6852 25.2896C43.6852 25.4267 43.685 25.5324 43.6777 25.6202C43.6703 25.7089 43.6571 25.7554 43.6447 25.7802C43.6368 25.796 43.6293 25.8045 43.6078 25.8141C43.5775 25.8276 43.5165 25.8428 43.3998 25.8428ZM57.3213 63.5914C56.9765 63.5914 56.7086 63.4776 56.5275 63.2965C56.3465 63.1154 56.2326 62.8476 56.2326 62.5028V54.4712C56.2326 54.1264 56.3465 53.8585 56.5275 53.6775C56.7086 53.4964 56.9765 53.3826 57.3213 53.3826C57.666 53.3826 57.9339 53.4964 58.115 53.6775C58.296 53.8585 58.4099 54.1264 58.4099 54.4712V62.5028C58.4099 62.8476 58.296 63.1154 58.115 63.2965C57.9339 63.4776 57.666 63.5914 57.3213 63.5914ZM76.0617 31.4649H38.5808C38.236 31.4649 37.9681 31.3511 37.7871 31.17C37.606 30.9889 37.4922 30.7211 37.4922 30.3763C37.4922 30.0315 37.606 29.7636 37.7871 29.5826C37.9681 29.4015 38.236 29.2877 38.5808 29.2877H76.0617C76.4065 29.2877 76.6744 29.4015 76.8554 29.5826C77.0365 29.7636 77.1503 30.0315 77.1503 30.3763C77.1503 30.7211 77.0365 30.9889 76.8554 31.17C76.6744 31.3511 76.4065 31.4649 76.0617 31.4649ZM38.5808 79.6546C38.236 79.6546 37.9681 79.5408 37.7871 79.3598C37.606 79.1787 37.4922 78.9108 37.4922 78.566C37.4922 78.2213 37.606 77.9534 37.7871 77.7723C37.9681 77.5913 38.236 77.4774 38.5808 77.4774H76.0617C76.4065 77.4774 76.6744 77.5913 76.8554 77.7723C77.0365 77.9534 77.1503 78.2213 77.1503 78.566C77.1503 78.9108 77.0365 79.1787 76.8554 79.3598C76.6744 79.5408 76.4065 79.6546 76.0617 79.6546H38.5808Z" fill="#313131" stroke="white" stroke-width="0.5"/>
<path d="M72.0466 93.0407H42.5973C38.9873 93.0407 36.1543 90.2077 36.1543 86.5977V25.0219C36.1543 21.4119 38.9873 18.5789 42.5973 18.5789H72.0466C75.6566 18.5789 78.4896 21.4119 78.4896 25.0219V86.5977C78.4896 90.2077 75.6566 93.0407 72.0466 93.0407ZM42.5973 20.7561C40.3175 20.7561 38.3315 22.742 38.3315 25.0219V86.5977C38.3315 88.8775 40.3175 90.8635 42.5973 90.8635H72.0466C74.3265 90.8635 76.3124 88.8775 76.3124 86.5977V25.0219C76.3124 22.742 74.3265 20.7561 72.0466 20.7561H42.5973Z" fill="#313131" stroke="white" stroke-width="0.5"/>
<path d="M61.337 87.6862H53.3054C52.9606 87.6862 52.6928 87.5724 52.5117 87.3913C52.3306 87.2103 52.2168 86.9424 52.2168 86.5976V83.9204C52.2168 83.5756 52.3306 83.3077 52.5117 83.1267C52.6928 82.9456 52.9606 82.8318 53.3054 82.8318H61.337C61.6818 82.8318 61.9497 82.9456 62.1307 83.1267C62.3118 83.3077 62.4256 83.5756 62.4256 83.9204V86.5976C62.4256 86.9424 62.3118 87.2103 62.1307 87.3913C61.9497 87.5724 61.6818 87.6862 61.337 87.6862ZM59.9984 85.009H54.644V85.259V85.509H59.9984V85.259V85.009Z" fill="#313131" stroke="white" stroke-width="0.5"/>
<circle cx="57.0007" cy="56.6789" r="55.321" stroke="#E2042E" stroke-width="2" stroke-dasharray="4 4"/>
</svg>
