<svg width="114" height="114" viewBox="0 0 114 114" fill="none" xmlns="http://www.w3.org/2000/svg">
<circle cx="57" cy="57" r="56" stroke="#E2042E" stroke-width="2" stroke-dasharray="4 4"/>
<path d="M83 79.5429V39.4571C83 33.5937 72.0187 29 58 29C43.9813 29 33 33.5937 33 39.4571V79.5429C33 85.4063 43.9813 90 58 90C72.0187 90 83 85.4063 83 79.5429ZM58 30.7429C71.9227 30.7429 81.2759 35.2489 81.2759 39.4571C81.2759 43.6654 71.9227 48.1714 58 48.1714C44.0772 48.1714 34.7241 43.6654 34.7241 39.4571C34.7241 35.2489 44.0772 30.7429 58 30.7429ZM58 49.9143C68.7231 49.9143 77.6623 47.2251 81.2759 43.3372V49.4786C81.2759 53.6868 71.9227 58.1929 58 58.1929C44.0772 58.1929 34.7241 53.6868 34.7241 49.4786V43.3372C38.3377 47.2251 47.2769 49.9143 58 49.9143ZM58 59.9357C68.7231 59.9357 77.6623 57.2465 81.2759 53.3586V59.5C81.2759 63.7082 71.9227 68.2143 58 68.2143C44.0772 68.2143 34.7241 63.7082 34.7241 59.5V53.3586C38.3377 57.2465 47.2769 59.9357 58 59.9357ZM58 69.9571C68.7231 69.9571 77.6623 67.2679 81.2759 63.38V69.5214C81.2759 73.7296 71.9227 78.2357 58 78.2357C44.0772 78.2357 34.7241 73.7296 34.7241 69.5214V63.38C38.3377 67.2679 47.2769 69.9571 58 69.9571ZM34.7241 79.5429V73.4015C38.3377 77.2893 47.2769 79.9786 58 79.9786C68.7231 79.9786 77.6623 77.2893 81.2759 73.4015V79.5429C81.2759 83.7511 71.9227 88.2571 58 88.2571C44.0772 88.2571 34.7241 83.7511 34.7241 79.5429Z" fill="#313131"/>
</svg>
