<svg width="114" height="114" viewBox="0 0 114 114" fill="none" xmlns="http://www.w3.org/2000/svg">
<g clip-path="url(#clip0_3923_6734)">
<path d="M25.6932 67.0437C23.7869 67.0436 21.9235 67.6087 20.3384 68.6677C18.7534 69.7266 17.518 71.2319 16.7885 72.993C16.0589 74.7541 15.868 76.692 16.2398 78.5616C16.6117 80.4312 17.5296 82.1485 18.8775 83.4965C20.2254 84.8444 21.9428 85.7623 23.8124 86.1342C25.682 86.506 27.6199 86.3151 29.381 85.5855C31.1421 84.856 32.6473 83.6206 33.7063 82.0356C34.7653 80.4505 35.3304 78.5871 35.3303 76.6808C35.3274 74.1258 34.3111 71.6762 32.5045 69.8695C30.6978 68.0629 28.2482 67.0466 25.6932 67.0437ZM25.6932 84.9544C24.0568 84.9545 22.4571 84.4694 21.0965 83.5604C19.7358 82.6513 18.6752 81.3592 18.0489 79.8474C17.4226 78.3357 17.2587 76.6721 17.5778 75.0672C17.897 73.4622 18.6849 71.9879 19.842 70.8308C20.999 69.6736 22.4732 68.8856 24.0782 68.5663C25.6831 68.247 27.3466 68.4108 28.8585 69.037C30.3703 69.6632 31.6625 70.7236 32.5716 72.0842C33.4808 73.4448 33.966 75.0444 33.966 76.6808C33.9637 78.8743 33.0914 80.9772 31.5404 82.5283C29.9895 84.0793 27.8866 84.9518 25.6932 84.9544Z" fill="#313131"/>
<path d="M28.184 70.9967C27.8948 70.8744 27.584 70.8115 27.27 70.8118H26.5067C25.8845 70.8125 25.2881 71.06 24.8482 71.4999C24.4083 71.9398 24.1609 72.5362 24.1601 73.1583V74.9441H23.4678C23.2869 74.9441 23.1134 75.016 22.9854 75.1439C22.8575 75.2719 22.7856 75.4454 22.7856 75.6263C22.7856 75.8072 22.8575 75.9807 22.9854 76.1086C23.1134 76.2365 23.2869 76.3084 23.4678 76.3084H24.1629V81.8677C24.1629 82.0487 24.2347 82.2222 24.3627 82.3501C24.4906 82.478 24.6641 82.5499 24.845 82.5499C25.0259 82.5499 25.1994 82.478 25.3273 82.3501C25.4553 82.2222 25.5271 82.0487 25.5271 81.8677V76.3084H27.1329C27.3138 76.3084 27.4873 76.2365 27.6152 76.1086C27.7431 75.9807 27.815 75.8072 27.815 75.6263C27.815 75.4454 27.7431 75.2719 27.6152 75.1439C27.4873 75.016 27.3138 74.9441 27.1329 74.9441H25.5271V73.1583C25.5275 72.8979 25.6311 72.6483 25.8152 72.4642C25.9993 72.28 26.249 72.1764 26.5094 72.1761H27.27C27.4012 72.1757 27.5311 72.2019 27.652 72.2531C27.8186 72.3237 28.0064 72.3252 28.1741 72.2572C28.3418 72.1893 28.4757 72.0575 28.5462 71.8909C28.6168 71.7243 28.6183 71.5365 28.5503 71.3688C28.4824 71.2011 28.3506 71.0672 28.184 70.9967ZM27.7836 43.1003C29.6899 43.1004 31.5534 42.5353 33.1384 41.4763C34.7235 40.4173 35.9589 38.912 36.6884 37.1509C37.4179 35.3898 37.6088 33.4518 37.2369 31.5822C36.865 29.7126 35.947 27.9952 34.599 26.6473C33.251 25.2994 31.5336 24.3816 29.6639 24.0098C27.7943 23.638 25.8564 23.829 24.0953 24.5587C22.3342 25.2883 20.829 26.5238 19.7701 28.109C18.7112 29.6941 18.1462 31.5576 18.1465 33.4639C18.1497 36.0187 19.1661 38.468 20.9728 40.2745C22.7794 42.081 25.2287 43.0972 27.7836 43.1003ZM27.7836 25.189C29.4199 25.1888 31.0195 25.6739 32.3802 26.5829C33.7408 27.4919 34.8014 28.7839 35.4277 30.2956C36.0541 31.8073 36.2181 33.4708 35.899 35.0757C35.58 36.6806 34.7922 38.1549 33.6353 39.3121C32.4784 40.4693 31.0043 41.2574 29.3995 41.5769C27.7946 41.8963 26.1311 41.7327 24.6192 41.1067C23.1074 40.4807 21.8151 39.4205 20.9058 38.0601C19.9965 36.6997 19.511 35.1002 19.5107 33.4639C19.5129 31.2703 20.3851 29.1671 21.9361 27.6157C23.487 26.0644 25.59 25.1917 27.7836 25.189Z" fill="#313131"/>
<path d="M24.1188 38.7648H31.449C32.0076 38.7642 32.5433 38.5421 32.9383 38.147C33.3334 37.752 33.5555 37.2163 33.5561 36.6577V30.2675C33.5555 29.7088 33.3334 29.1732 32.9383 28.7782C32.5433 28.3831 32.0076 28.1609 31.449 28.1604H24.1188C23.5602 28.1611 23.0247 28.3834 22.6297 28.7784C22.2347 29.1734 22.0124 29.7089 22.0117 30.2675V36.6577C22.0124 37.2163 22.2347 37.7518 22.6297 38.1468C23.0247 38.5418 23.5602 38.7641 24.1188 38.7648ZM23.3753 30.2675C23.3757 30.0705 23.4541 29.8816 23.5935 29.7424C23.7329 29.6031 23.9218 29.5248 24.1188 29.5247H31.449C31.6459 29.5248 31.8348 29.6032 31.974 29.7424C32.1133 29.8817 32.1916 30.0705 32.1918 30.2675V36.6577C32.1916 36.8546 32.1133 37.0435 31.974 37.1827C31.8348 37.322 31.6459 37.4003 31.449 37.4005H24.1188C23.9219 37.4003 23.733 37.322 23.5937 37.1827C23.4545 37.0435 23.3762 36.8546 23.376 36.6577L23.3753 30.2675Z" fill="#313131"/>
<path d="M27.7836 36.6624C28.3734 36.6625 28.9499 36.4878 29.4403 36.1602C29.9307 35.8327 30.313 35.3671 30.5388 34.8223C30.7645 34.2775 30.8237 33.678 30.7087 33.0995C30.5937 32.5211 30.3098 31.9898 29.8929 31.5727C29.4759 31.1557 28.9446 30.8717 28.3662 30.7566C27.7879 30.6415 27.1883 30.7005 26.6435 30.9261C26.0986 31.1518 25.6329 31.5339 25.3053 32.0243C24.9776 32.5146 24.8027 33.0911 24.8027 33.6808C24.8036 34.4712 25.118 35.2289 25.6768 35.7879C26.2356 36.3468 26.9933 36.6613 27.7836 36.6624ZM27.7836 32.0635C28.1035 32.0633 28.4163 32.1581 28.6824 32.3357C28.9484 32.5133 29.1558 32.7659 29.2783 33.0614C29.4009 33.3569 29.433 33.6821 29.3707 33.9959C29.3083 34.3097 29.1543 34.5979 28.9282 34.8242C28.702 35.0504 28.4138 35.2045 28.1001 35.267C27.7863 35.3295 27.4611 35.2975 27.1656 35.1751C26.87 35.0527 26.6174 34.8454 26.4396 34.5794C26.2619 34.3134 26.167 34.0007 26.167 33.6808C26.1675 33.2521 26.338 32.8412 26.6411 32.538C26.9441 32.2348 27.355 32.0642 27.7836 32.0635Z" fill="#313131"/>
<path d="M31.0053 31.1719C31.2584 31.1719 31.4637 30.9667 31.4637 30.7135C31.4637 30.4604 31.2584 30.2551 31.0053 30.2551C30.7521 30.2551 30.5469 30.4604 30.5469 30.7135C30.5469 30.9667 30.7521 31.1719 31.0053 31.1719Z" fill="#313131"/>
<path d="M96.9025 57.9523C96.9046 56.075 96.3585 54.238 95.3311 52.6669C94.3037 51.0957 92.8398 49.8588 91.1192 49.108C89.3986 48.3573 87.4962 48.1253 85.6457 48.4407C83.7951 48.7561 82.0769 49.605 80.7021 50.8833C79.3273 52.1616 78.3557 53.8135 77.9067 55.6363C77.4577 57.459 77.5508 59.3733 78.1745 61.1438C78.7983 62.9144 79.9255 64.4643 81.4179 65.6032C82.9102 66.742 84.7027 67.4203 86.5751 67.5546C86.5604 67.9672 86.4817 68.3749 86.3418 68.7633L87.6167 69.249C87.8187 68.7059 87.9314 68.1337 87.9503 67.5546C90.3793 67.3804 92.6524 66.2936 94.3131 64.5124C95.9737 62.7311 96.8988 60.3875 96.9025 57.9523ZM87.2627 66.2231C85.6263 66.2227 84.0268 65.737 82.6664 64.8276C81.3061 63.9181 80.246 62.6256 79.6201 61.1136C78.9943 59.6017 78.8309 57.9381 79.1506 56.3332C79.4703 54.7284 80.2587 53.2544 81.4162 52.0976C82.5736 50.9408 84.0481 50.1533 85.6531 49.8345C87.2581 49.5157 88.9216 49.6801 90.4333 50.3068C91.9449 50.9335 93.2367 51.9943 94.1454 53.3552C95.0541 54.7161 95.5388 56.3159 95.5383 57.9523C95.5352 60.1457 94.6622 62.2484 93.1107 63.7989C91.5593 65.3495 89.4561 66.2213 87.2627 66.2231Z" fill="#313131"/>
<path d="M93.4415 54.3888C93.3852 54.3346 93.3205 54.2899 93.2499 54.2564C93.3065 54.1205 93.318 53.9699 93.2828 53.8269C93.2475 53.6839 93.1674 53.5559 93.0541 53.4618C92.9314 53.3593 92.776 53.3043 92.6162 53.307C92.4564 53.3096 92.3029 53.3696 92.1837 53.4761C91.9214 53.6101 91.6474 53.7199 91.3651 53.8042C90.9446 53.4736 90.4421 53.2636 89.9114 53.1968C89.3806 53.1299 88.8417 53.2086 88.3523 53.4246C87.8629 53.6405 87.4415 53.9855 87.1331 54.4225C86.8248 54.8596 86.6411 55.3724 86.6018 55.9058C85.1958 55.7083 83.9206 54.9751 83.0425 53.8594C82.9784 53.7756 82.8958 53.7078 82.8011 53.6612C82.7065 53.6147 82.6023 53.5908 82.4968 53.5914C82.3909 53.5914 82.2864 53.616 82.1917 53.6634C82.097 53.7107 82.0146 53.7795 81.9511 53.8642C81.7118 54.2589 81.5615 54.7011 81.5107 55.1599C81.46 55.6186 81.5099 56.0829 81.6571 56.5204C81.584 56.5825 81.5249 56.6593 81.4835 56.7458C81.4421 56.8324 81.4194 56.9266 81.417 57.0225C81.4076 57.8474 81.7234 58.6429 82.2962 59.2367C82.2553 59.3835 82.2644 59.5397 82.3221 59.6807C82.511 60.2577 82.8724 60.7627 83.3576 61.1275C82.8436 61.2889 82.3026 61.3464 81.7662 61.2967C81.6145 61.2825 81.4623 61.3195 81.334 61.4018C81.2058 61.4842 81.1088 61.6071 81.0585 61.751C81.0083 61.8949 81.0077 62.0515 81.0568 62.1958C81.106 62.34 81.202 62.4637 81.3296 62.547C82.4607 63.2561 83.7549 63.6627 85.0882 63.7278C85.3165 63.7282 85.5446 63.7111 85.7703 63.6766C87.1869 63.5528 88.5405 63.0351 89.6782 62.1821C90.9468 61.1716 91.8381 59.7632 92.2082 58.1841C92.2912 57.8322 92.3507 57.4751 92.3863 57.1152C92.404 56.9356 92.4167 56.756 92.4245 56.5764C92.4245 56.5538 92.4245 56.5081 92.4245 56.4508C92.8238 56.104 93.1847 55.7153 93.5009 55.2912C93.5996 55.1582 93.6478 54.9944 93.637 54.8291C93.6261 54.6638 93.5568 54.5077 93.4415 54.3888ZM91.0691 56.5156C91.0629 56.6698 91.0513 56.824 91.0363 56.9775C91.0067 57.276 90.9573 57.5722 90.8883 57.8642C90.5911 59.1529 89.8629 60.3015 88.8242 61.12C87.8724 61.8157 86.7458 62.2326 85.5704 62.324C85.1179 62.3845 84.6583 62.364 84.213 62.2633C84.6552 62.0902 85.0712 61.8565 85.449 61.5689C85.5499 61.4865 85.625 61.377 85.6656 61.2533C85.7062 61.1296 85.7106 60.9968 85.6781 60.8707C85.6457 60.7446 85.5779 60.6304 85.4826 60.5417C85.3874 60.4529 85.2688 60.3932 85.1407 60.3697C84.7622 60.3261 84.4009 60.1877 84.0902 59.9672C84.1786 59.9284 84.2577 59.8713 84.3223 59.7996C84.3869 59.7279 84.4356 59.6434 84.4651 59.5515C84.4946 59.4596 84.5043 59.3625 84.4936 59.2666C84.4828 59.1707 84.4518 59.0782 84.4026 58.9952L84.3651 58.9318C84.3184 58.8528 84.2563 58.7841 84.1825 58.7297C84.1087 58.6753 84.0246 58.6364 83.9354 58.6152C83.757 58.578 83.5877 58.5057 83.4374 58.4027C83.2871 58.2997 83.1586 58.1679 83.0595 58.015C83.1947 58.0077 83.3246 57.9603 83.4328 57.8789C83.541 57.7975 83.6225 57.6858 83.6669 57.5579C83.7114 57.4301 83.7168 57.2919 83.6825 57.1609C83.6482 57.03 83.5757 56.9122 83.4743 56.8226C83.2999 56.6777 83.1561 56.4995 83.0514 56.2984C82.9467 56.0973 82.8831 55.8774 82.8644 55.6514C84.1197 56.698 85.6905 57.2922 87.3242 57.3383C87.4291 57.3443 87.5338 57.3242 87.6291 57.2798C87.7243 57.2354 87.8071 57.1681 87.8699 57.0839C87.9356 57.0023 87.9817 56.9067 88.0045 56.8045C88.0273 56.7023 88.0263 56.5963 88.0016 56.4945C87.9718 56.3724 87.9569 56.2471 87.9572 56.1214C87.9578 55.7007 88.1251 55.2974 88.4225 54.9998C88.7199 54.7023 89.1231 54.5348 89.5438 54.5341C89.7615 54.533 89.977 54.5771 90.1766 54.6638C90.3762 54.7505 90.5557 54.8777 90.7035 55.0375C90.7566 55.095 90.8194 55.1428 90.889 55.1787C90.8544 55.3361 90.8766 55.5006 90.9518 55.6432C90.9953 55.7268 91.0559 55.8002 91.1298 55.8588C91.063 56.0709 91.0423 56.2949 91.0691 56.5156ZM77.8706 35.9611C79.4029 35.9615 80.901 35.5075 82.1753 34.6565C83.4496 33.8055 84.4429 32.5958 85.0297 31.1802C85.6165 29.7647 85.7703 28.2069 85.4718 26.704C85.1732 25.201 84.4357 23.8203 83.3525 22.7365C82.2692 21.6527 80.8889 20.9144 79.3861 20.6151C77.8833 20.3158 76.3255 20.4688 74.9096 21.0548C73.4938 21.6408 72.2835 22.6335 71.4318 23.9074C70.5802 25.1813 70.1254 26.6791 70.125 28.2114C70.1266 30.2655 70.9431 32.2351 72.3952 33.688C73.8473 35.1409 75.8164 35.9584 77.8706 35.9611ZM77.8706 21.8308C79.1333 21.8304 80.3678 22.2045 81.4178 22.9057C82.4679 23.607 83.2864 24.604 83.7697 25.7705C84.2531 26.9371 84.3797 28.2207 84.1334 29.4592C83.8871 30.6977 83.279 31.8353 82.3861 32.7281C81.4932 33.6209 80.3555 34.2289 79.117 34.475C77.8785 34.7212 76.5949 34.5945 75.4284 34.111C74.2619 33.6275 73.265 32.8089 72.5639 31.7588C71.8627 30.7086 71.4887 29.4741 71.4893 28.2114C71.492 26.5199 72.1652 24.8984 73.3613 23.7024C74.5575 22.5063 76.179 21.8333 77.8706 21.8308Z" fill="#313131"/>
<path d="M76.6856 32.652C76.7229 32.6615 76.761 32.6677 76.7995 32.6704C76.8377 32.6704 76.8786 32.6779 76.9202 32.6841C76.9148 32.7086 76.9093 32.7325 76.9032 32.7523C76.8937 32.7874 76.8868 32.8232 76.8827 32.8594L76.8425 33.2216C76.8303 33.3713 76.8556 33.5217 76.916 33.6592C76.9763 33.7967 77.0699 33.9171 77.1883 34.0095C77.3393 34.1207 77.5226 34.1792 77.7101 34.1759C77.8686 34.1731 78.0252 34.1419 78.1726 34.0838C79.6461 33.3177 81.0079 32.3538 82.2204 31.2189C84.0041 29.2809 84.1835 27.1445 82.7552 25.2482C82.6938 25.1506 81.1972 22.8655 77.221 23.165C77.2047 23.165 77.1385 23.1759 77.1221 23.1786C76.1487 23.3246 72.9195 24.0517 72.2538 27.3048C72.2483 27.3464 71.6228 31.3928 76.6856 32.652ZM73.5955 27.5565C74.0669 25.2571 76.3616 24.6725 77.3261 24.5279L77.352 24.5231C80.4502 24.3 81.5628 25.916 81.6358 26.0238C82.6985 27.4385 82.5621 28.8355 81.2176 30.2959C80.3378 31.1258 79.3639 31.8499 78.3159 32.4535C78.3182 32.3164 78.2983 32.1798 78.2572 32.049C78.0839 31.5286 77.4707 31.3614 76.9612 31.3157C73.2115 30.356 73.5832 27.6438 73.5955 27.5565Z" fill="#313131"/>
<path d="M75.8815 28.5867C76.0029 28.5867 76.1216 28.5507 76.2226 28.4833C76.3235 28.4158 76.4022 28.3199 76.4487 28.2077C76.4952 28.0956 76.5073 27.9721 76.4836 27.853C76.4599 27.7339 76.4015 27.6246 76.3156 27.5387C76.2298 27.4528 76.1204 27.3944 76.0013 27.3707C75.8822 27.347 75.7587 27.3592 75.6466 27.4056C75.5344 27.4521 75.4385 27.5308 75.3711 27.6317C75.3036 27.7327 75.2676 27.8514 75.2676 27.9728C75.2671 28.0536 75.2827 28.1336 75.3134 28.2083C75.3441 28.283 75.3893 28.3508 75.4464 28.4079C75.5035 28.465 75.5713 28.5102 75.646 28.5409C75.7207 28.5716 75.8008 28.5872 75.8815 28.5867ZM78.2478 28.5867C78.3694 28.5874 78.4884 28.552 78.5898 28.4849C78.6912 28.4179 78.7704 28.3222 78.8174 28.2101C78.8644 28.098 78.8771 27.9744 78.8538 27.8551C78.8305 27.7358 78.7723 27.6261 78.6865 27.5399C78.6008 27.4537 78.4914 27.3949 78.3722 27.3709C78.2531 27.347 78.1295 27.3589 78.0171 27.4053C77.9047 27.4517 77.8086 27.5303 77.741 27.6314C77.6734 27.7324 77.6373 27.8512 77.6373 27.9728C77.6369 28.0533 77.6523 28.133 77.6828 28.2075C77.7133 28.2819 77.7582 28.3496 77.8149 28.4067C77.8716 28.4638 77.9391 28.509 78.0134 28.5399C78.0877 28.5708 78.1673 28.5867 78.2478 28.5867Z" fill="#313131"/>
<path d="M80.6125 28.5867C80.9496 28.5867 81.223 28.3134 81.223 27.9762C81.223 27.6391 80.9496 27.3657 80.6125 27.3657C80.2753 27.3657 80.002 27.6391 80.002 27.9762C80.002 28.3134 80.2753 28.5867 80.6125 28.5867Z" fill="#313131"/>
<path d="M41.1521 89.8584L39.3555 90.5886L39.8691 91.8525L41.6657 91.1223L41.1521 89.8584Z" fill="#313131"/>
<path d="M27.4216 91.8303C28.0449 92.2445 28.725 92.5662 29.4407 92.7853L29.8499 91.4831C29.2605 91.3039 28.7005 91.0394 28.1876 90.698L27.4216 91.8303ZM31.7163 91.859L31.5757 93.2157C32.0846 93.2672 32.5957 93.2927 33.1071 93.2921C33.3036 93.2921 33.5053 93.2885 33.7122 93.2812L33.6644 91.9169C33.0145 91.9431 32.3635 91.9237 31.7163 91.859ZM37.0935 91.509C36.5928 91.6045 36.1023 91.685 35.6358 91.7471L35.8165 93.0997C36.3295 93.0315 36.8684 92.9422 37.4175 92.8358C37.4611 92.8274 37.5039 92.8149 37.545 92.7982L37.9734 92.6236L37.4598 91.3603L37.0935 91.509ZM24.9141 88.0165C25.029 88.8107 25.3308 89.5663 25.7947 90.2212L26.9223 89.4524C26.5919 88.9841 26.3699 88.4482 26.2722 87.8835L24.9141 88.0165ZM39.2135 30.8862C39.6475 30.8871 40.0807 30.9206 40.5096 30.9865L40.7142 29.6379C40.2176 29.5618 39.716 29.5231 39.2135 29.5219C38.9707 29.5195 38.7279 29.5312 38.4864 29.5567L38.6501 30.9114C38.8373 30.8927 39.0254 30.8843 39.2135 30.8862ZM47.3698 38.9653L48.7224 38.7845C48.6301 38.0777 48.4895 37.378 48.3015 36.6904L46.9864 37.054C47.1577 37.6816 47.2858 38.3202 47.3698 38.9653ZM44.777 31.275C44.1786 30.8383 43.5272 30.4794 42.8384 30.2068L42.3343 31.4755C42.9147 31.7039 43.4637 32.0053 43.968 32.3725L44.777 31.275ZM47.5471 34.6631C47.2293 34.0017 46.8372 33.3786 46.3786 32.8057L45.3165 33.6624C45.7103 34.1545 46.0467 34.6898 46.3193 35.2579L47.5471 34.6631ZM70.0253 29.3309L69.8698 27.9749C69.2681 28.0431 68.689 28.1392 68.1494 28.2566L68.4407 29.5901C68.9642 29.477 69.4931 29.3904 70.0253 29.3309ZM63.5942 32.292L62.5219 31.453C62.0572 32.048 61.689 32.7123 61.4305 33.4217L62.7122 33.8896C62.9207 33.3142 63.2183 32.7751 63.5942 32.292ZM66.5915 30.1461L66.0833 28.88C65.4 29.15 64.7502 29.4979 64.1467 29.9169L64.9305 31.0335C65.4481 30.6747 66.0055 30.3769 66.5915 30.1461ZM62.4284 37.5369C62.3462 37.115 62.3069 36.6858 62.3111 36.2559C62.3111 36.0833 62.3166 35.8978 62.3309 35.7027L60.9707 35.6024C60.9537 35.833 60.9468 36.0519 60.9468 36.2559C60.9417 36.79 60.9929 37.3232 61.0996 37.8466L62.4284 37.5369ZM83.85 71.2061L84.4482 72.434C85.1284 72.1113 85.7556 71.6872 86.3084 71.1761L85.3732 70.1843C84.9202 70.6002 84.4066 70.9448 83.85 71.2061ZM80.1256 72.2689L80.3255 73.6188C81.0291 73.5168 81.7259 73.3721 82.4121 73.1857L82.0492 71.8705C81.4168 72.0426 80.7743 72.1756 80.1256 72.2689ZM56.1522 55.6181C54.5452 55.6181 52.9743 56.0947 51.6382 56.9875C50.302 57.8803 49.2607 59.1492 48.6457 60.6339C48.0308 62.1185 47.8699 63.7522 48.1835 65.3283C48.497 66.9044 49.2709 68.3521 50.4073 69.4883C51.5436 70.6246 52.9914 71.3983 54.5675 71.7118C56.1436 72.0252 57.7773 71.8642 59.2619 71.2491C60.7465 70.6341 62.0154 69.5926 62.9081 68.2564C63.8007 66.9202 64.2771 65.3493 64.277 63.7423C64.2745 61.5883 63.4176 59.5232 61.8945 58.0002C60.3713 56.4771 58.3062 55.6205 56.1522 55.6181ZM61.3541 59.4305C60.4921 59.6657 59.6148 59.8408 58.7286 59.9544C58.3796 58.9218 57.871 57.9502 57.2211 57.0752C58.8388 57.333 60.3077 58.1701 61.3541 59.4305ZM56.0492 69.9353C55.4611 69.17 55.0004 68.3147 54.6849 67.4026C55.5936 67.3474 56.5049 67.3488 57.4134 67.4067C57.0975 68.3178 56.6368 69.1721 56.0492 69.9367V69.9353ZM54.3084 66.0472C54.2022 65.5342 54.1338 65.0142 54.1037 64.4913H57.9919C57.9622 65.0154 57.8938 65.5366 57.7872 66.0506C56.6293 65.9615 55.4663 65.9611 54.3084 66.0492V66.0472ZM57.3268 60.0799C56.4755 60.1294 55.6221 60.1294 54.7709 60.0799C55.0805 59.2536 55.5114 58.478 56.0492 57.7784C56.5872 58.4785 57.0178 59.2549 57.3268 60.082V60.0799ZM56.0191 61.5015C56.5724 61.5015 57.1494 61.479 57.7436 61.4333C57.8709 61.9904 57.9537 62.5568 57.9912 63.127H54.1085C54.1453 62.5588 54.2275 61.9945 54.3541 61.4394C54.882 61.479 55.4359 61.5035 56.0191 61.5035V61.5015ZM52.7449 63.127H49.425C49.5012 62.2934 49.7325 61.4813 50.1071 60.7327C51.0565 60.988 52.0221 61.1785 52.9973 61.303C52.8679 61.9044 52.7847 62.5149 52.7483 63.129L52.7449 63.127ZM52.7402 64.4913C52.7683 65.0609 52.8367 65.6278 52.9448 66.1877C51.9875 66.3116 51.0396 66.4989 50.1071 66.7484C49.7516 66.0417 49.5246 65.2774 49.4366 64.4913H52.7402ZM59.352 64.4913H62.865C62.7728 65.3214 62.5262 66.127 62.1378 66.8664C61.1598 66.573 60.1614 66.3523 59.1508 66.2061C59.26 65.6408 59.3284 65.0684 59.3554 64.4933L59.352 64.4913ZM59.3479 63.127C59.311 62.5075 59.2266 61.8918 59.0956 61.2853C60.1261 61.1416 61.1443 60.92 62.1413 60.6222C62.5486 61.4008 62.7989 62.2519 62.878 63.127H59.3479ZM54.8507 57.1086C54.2111 57.9758 53.7099 58.937 53.365 59.9578C52.5284 59.8587 51.6983 59.7115 50.8786 59.5172C51.8776 58.2703 53.2861 57.4176 54.8541 57.1106L54.8507 57.1086ZM50.882 67.966C51.6776 67.7776 52.4831 67.6337 53.2947 67.5349C53.6104 68.5294 54.0713 69.4718 54.6624 70.3316C53.1712 69.9929 51.8387 69.159 50.882 67.966ZM57.4018 70.3821C58.0091 69.5102 58.4814 68.5517 58.8029 67.539C59.6637 67.6534 60.5158 67.8257 61.3534 68.0547C60.3478 69.2674 58.9501 70.0907 57.4018 70.3821ZM59.4141 84.5834H53.1433C52.7001 84.5834 52.275 84.7594 51.9616 85.0728C51.6481 85.3863 51.4721 85.8113 51.4721 86.2546C51.4721 86.6978 51.6481 87.1229 51.9616 87.4363C52.275 87.7497 52.7001 87.9258 53.1433 87.9258H59.4141C59.8573 87.9258 60.2824 87.7497 60.5958 87.4363C60.9092 87.1229 61.0853 86.6978 61.0853 86.2546C61.0853 85.8113 60.9092 85.3863 60.5958 85.0728C60.2824 84.7594 59.8573 84.5834 59.4141 84.5834ZM59.4141 86.5615H53.1433C53.0622 86.5614 52.9845 86.529 52.9272 86.4716C52.8699 86.4142 52.8377 86.3364 52.8377 86.2553C52.8388 86.1745 52.8713 86.0974 52.9284 86.0403C52.9855 85.9833 53.0626 85.9507 53.1433 85.9497H59.4141C59.4947 85.9509 59.5716 85.9835 59.6286 86.0406C59.6855 86.0976 59.718 86.1747 59.719 86.2553C59.7187 86.3359 59.6864 86.4132 59.6293 86.4702C59.5721 86.5272 59.4948 86.5593 59.4141 86.5595V86.5615Z" fill="#313131"/>
<path d="M79.9954 88.5274C79.9381 88.3514 79.7832 87.9476 79.5997 87.4714C79.3419 86.8036 78.8678 85.5758 78.803 85.2702C78.8112 84.0587 78.8712 82.82 78.9237 81.6208C79.0669 79.4459 79.079 77.2644 78.9599 75.0881C78.724 72.8737 78.2149 70.6971 77.4442 68.6078L76.3166 65.1222C76.1523 64.6123 76.0678 64.0801 76.0663 63.5444V54.3322C76.0663 54.2419 76.0484 54.1525 76.0135 54.0691C75.9787 53.9858 75.9277 53.9102 75.8634 53.8467C75.7991 53.7833 75.7229 53.7332 75.6391 53.6995C75.5553 53.6657 75.4656 53.6489 75.3753 53.6501C74.6056 53.6575 73.8452 53.8195 73.1395 54.1267C72.4336 54.4338 71.7968 54.8798 71.2668 55.438C71.2668 55.335 71.2668 55.2272 71.2668 55.1283L71.2437 41.8711C71.2431 41.4578 71.0787 41.0616 70.7866 40.7693C70.4944 40.477 70.0983 40.3125 69.685 40.3118H42.8773C42.4639 40.3123 42.0676 40.4768 41.7753 40.7691C41.483 41.0614 41.3185 41.4577 41.318 41.8711V54.5526H40.6038C40.0459 54.5533 39.511 54.7751 39.1163 55.1694C38.7216 55.5637 38.4993 56.0984 38.498 56.6563V59.6256C38.4993 60.0023 38.602 60.3718 38.7954 60.6952C38.9887 61.0185 39.2656 61.2838 39.597 61.4632C39.2658 61.6428 38.989 61.9081 38.7956 62.2314C38.6023 62.5548 38.4995 62.9242 38.498 63.3009V66.2743C38.4993 66.651 38.602 67.0205 38.7954 67.3439C38.9887 67.6672 39.2656 67.9326 39.597 68.1119C39.2657 68.2914 38.9889 68.5568 38.7955 68.8801C38.6022 69.2034 38.4994 69.5729 38.498 69.9496V72.9189C38.5 73.2963 38.6036 73.6661 38.7981 73.9895C38.9926 74.313 39.2707 74.5779 39.6031 74.7566C39.2703 74.9357 38.992 75.2014 38.7976 75.5256C38.6033 75.8497 38.5 76.2203 38.4987 76.5983V79.5608C38.4993 80.1191 38.7213 80.6544 39.1161 81.0492C39.5109 81.444 40.0462 81.666 40.6045 81.6665H41.3214V88.1863C41.3217 88.5998 41.4861 88.9963 41.7785 89.2888C42.0708 89.5812 42.4672 89.7458 42.8807 89.7463H54.9155C56.2252 91.2948 57.5888 92.5649 59.9756 92.8159L61.6993 99.6024C61.7366 99.7493 61.8217 99.8796 61.9413 99.9728C62.0609 100.066 62.208 100.117 62.3596 100.117C62.4054 100.116 62.4511 100.112 62.496 100.102L81.3617 96.1911C81.453 96.1721 81.5395 96.1347 81.6158 96.081C81.6921 96.0273 81.7565 95.9585 81.8052 95.8789C81.8539 95.7993 81.8857 95.7106 81.8987 95.6182C81.9117 95.5258 81.9056 95.4318 81.8808 95.3418L79.9954 88.5274ZM42.6829 41.8698C42.6831 41.8181 42.7037 41.7685 42.7402 41.732C42.7768 41.6955 42.8263 41.6748 42.878 41.6747H69.685C69.7367 41.6754 69.7862 41.6963 69.8226 41.7331C69.8591 41.7698 69.8797 41.8194 69.8801 41.8711L69.9033 55.1283C69.9033 55.5662 69.9033 56.0553 69.8964 56.5185C69.8964 57.0451 69.8896 57.5417 69.8917 57.8882C69.7596 58.3637 69.6897 58.8544 69.6836 59.3479L69.5649 69.9578C69.383 70.0942 69.2045 70.2345 69.0295 70.3786V44.5464C69.0291 44.1413 68.8681 43.7529 68.5818 43.4664C68.2955 43.1798 67.9072 43.0185 67.5022 43.0178H45.1686C44.7633 43.0181 44.3747 43.1793 44.0881 43.4659C43.8015 43.7525 43.6403 44.1411 43.6399 44.5464V54.674C43.5519 54.6501 43.4619 54.6372 43.3725 54.6208C43.3193 54.6112 43.2675 54.5969 43.2136 54.5894C43.0462 54.5655 42.8773 54.5532 42.7081 54.5526L42.6829 41.8698ZM64.7532 82.8841H45.1686C45.1469 82.8843 45.1255 82.8802 45.1055 82.872C45.0854 82.8638 45.0672 82.8517 45.0519 82.8364C45.0366 82.8211 45.0245 82.8029 45.0163 82.7829C45.0081 82.7628 45.004 82.7414 45.0042 82.7197V80.835C45.086 80.7668 45.1659 80.6938 45.2436 80.616C45.6299 80.2347 45.9235 79.7698 46.1019 79.2572C46.2802 78.7445 46.3385 78.1978 46.2723 77.659C46.2668 77.6119 46.2566 77.5669 46.2491 77.5226C46.2348 77.4305 46.2191 77.3384 46.1979 77.2497C46.185 77.1958 46.1679 77.1433 46.1522 77.0901C46.129 77.0103 46.1051 76.9305 46.0772 76.8527C46.0567 76.7968 46.0328 76.7422 46.009 76.6877C45.9783 76.6153 45.9462 76.5437 45.9114 76.4742C45.8835 76.4189 45.8541 76.3643 45.8227 76.3104C45.7852 76.2422 45.7457 76.1808 45.7041 76.1174C45.6624 76.054 45.6358 76.0117 45.5956 75.9605C45.5554 75.9094 45.5035 75.8418 45.4551 75.7845C45.4066 75.7272 45.3739 75.6863 45.3303 75.6399C45.2764 75.5819 45.2191 75.528 45.1611 75.4741C45.1174 75.4332 45.0751 75.3902 45.0287 75.3514C45.0199 75.3439 45.0124 75.335 45.0035 75.3275V74.1904C45.0854 74.1222 45.1652 74.0494 45.2429 73.9721C45.5792 73.6402 45.8458 73.2445 46.027 72.8081C46.2082 72.3718 46.3004 71.9036 46.2982 71.4312C46.2975 71.2898 46.2887 71.1486 46.2716 71.0083C46.2661 70.9619 46.2559 70.9162 46.2484 70.8718C46.2341 70.7797 46.2184 70.6883 46.1972 70.599C46.1843 70.5444 46.1672 70.4919 46.1515 70.4387C46.1283 70.3589 46.1045 70.2797 46.0765 70.202C46.056 70.146 46.0322 70.0915 46.0083 70.0362C45.9776 69.9639 45.9455 69.893 45.9107 69.8234C45.8828 69.7675 45.8534 69.7136 45.8221 69.6597C45.7845 69.5915 45.745 69.5294 45.7034 69.4666C45.6618 69.4039 45.6352 69.3609 45.5949 69.3091C45.5547 69.2572 45.5028 69.1904 45.4544 69.1331C45.406 69.0758 45.3732 69.0349 45.3296 68.9885C45.2757 68.9312 45.2184 68.8773 45.1604 68.8227C45.1167 68.7818 45.0745 68.7388 45.0281 68.6992L45.0028 68.6761V67.5458C45.0856 67.4771 45.1663 67.4034 45.245 67.3248C45.5794 66.9923 45.8446 66.5969 46.0252 66.1613C46.2059 65.7258 46.2984 65.2588 46.2975 64.7872C46.2969 64.6459 46.288 64.5047 46.2709 64.3643C46.2655 64.3173 46.2552 64.2715 46.2477 64.2279C46.2334 64.1358 46.2177 64.0444 46.1966 63.955C46.1836 63.9011 46.1665 63.8479 46.1509 63.7947C46.1277 63.7149 46.1038 63.6358 46.0758 63.558C46.0554 63.5021 46.0315 63.4475 46.0076 63.3923C45.9769 63.3207 45.9448 63.249 45.9101 63.1795C45.8821 63.1242 45.8528 63.0696 45.8214 63.0157C45.7839 62.9475 45.7443 62.8861 45.7027 62.8227C45.6679 62.7695 45.6345 62.717 45.5942 62.6658C45.554 62.6147 45.5021 62.5471 45.4537 62.4891C45.4053 62.4312 45.3725 62.3916 45.3289 62.3445C45.275 62.2872 45.2177 62.2333 45.1597 62.1795C45.1161 62.1378 45.0738 62.0949 45.0274 62.056C45.0185 62.0485 45.011 62.0396 45.0021 62.0321V60.9018C45.084 60.8332 45.1638 60.7602 45.2416 60.6829C45.5777 60.351 45.8443 59.9554 46.0255 59.5192C46.2067 59.083 46.2989 58.615 46.2968 58.1426C46.2962 58.0012 46.2873 57.86 46.2702 57.7197C46.2648 57.6726 46.2545 57.6276 46.247 57.5833C46.2327 57.4919 46.217 57.3998 46.1959 57.3104C46.1829 57.2565 46.1659 57.204 46.1502 57.1501C46.127 57.0703 46.1031 56.9912 46.0751 56.9134C46.0547 56.8575 46.0308 56.8029 46.0069 56.7477C45.9762 56.676 45.9442 56.6051 45.9094 56.5348C45.8814 56.4796 45.8521 56.425 45.8207 56.3711C45.7832 56.3029 45.7436 56.2415 45.702 56.1781C45.6672 56.1249 45.6338 56.0724 45.5936 56.0212C45.5533 55.97 45.5015 55.9025 45.453 55.8445C45.4046 55.7865 45.3719 55.747 45.3282 55.7006C45.2743 55.6426 45.217 55.5887 45.159 55.5348C45.1154 55.4932 45.0731 55.4503 45.0267 55.4114C45.0178 55.4039 45.0103 55.395 45.0015 55.3882V44.5464C45.0013 44.5248 45.0054 44.5033 45.0136 44.4833C45.0218 44.4633 45.0339 44.4451 45.0492 44.4298C45.0645 44.4145 45.0827 44.4024 45.1027 44.3942C45.1228 44.386 45.1442 44.3818 45.1659 44.382H67.5022C67.5456 44.3826 67.5871 44.4001 67.6178 44.4308C67.6485 44.4615 67.666 44.503 67.6666 44.5464V71.7177C66.1534 73.4764 65.1291 75.602 64.6966 77.8814C64.4015 79.5377 64.4207 81.2349 64.7532 82.8841ZM43.9421 62.9366C44.2165 63.1186 44.4469 63.3593 44.6168 63.6413C44.7867 63.9233 44.8918 64.2396 44.9244 64.5672C44.957 64.8948 44.9164 65.2256 44.8055 65.5356C44.6946 65.8455 44.5162 66.127 44.2832 66.3595C43.8656 66.7767 43.2998 67.0117 42.7095 67.013H40.6038C40.4077 67.0127 40.2197 66.9348 40.0808 66.7964C39.9419 66.658 39.8634 66.4703 39.8623 66.2743V63.3022C39.8627 63.1058 39.9409 62.9174 40.0799 62.7786C40.2189 62.6397 40.4073 62.5616 40.6038 62.5614H42.7081C43.1479 62.5594 43.578 62.6901 43.9421 62.9366ZM43.9421 69.5812C44.2471 69.784 44.4973 70.0589 44.6705 70.3817C44.8436 70.7044 44.9344 71.0649 44.9346 71.4312C44.9362 71.7236 44.8793 72.0135 44.7671 72.2836C44.655 72.5538 44.49 72.7988 44.2818 73.0042C44.1781 73.1092 44.0638 73.2031 43.9408 73.2845C43.5784 73.5298 43.1504 73.6598 42.7129 73.6576H40.6038C40.4072 73.6573 40.2189 73.579 40.0799 73.4401C39.9409 73.3011 39.8627 73.1127 39.8623 72.9162V69.9469C39.8632 69.7507 39.9417 69.5628 40.0806 69.4243C40.2195 69.2857 40.4076 69.2078 40.6038 69.2074H42.7081C43.1478 69.2046 43.578 69.3349 43.9421 69.5812ZM39.8623 56.6563C39.8627 56.4598 39.9409 56.2715 40.0799 56.1326C40.2189 55.9937 40.4073 55.9156 40.6038 55.9155H42.7081C43.147 55.9134 43.5763 56.0437 43.9401 56.2893H43.9442C44.2486 56.4923 44.4982 56.7673 44.671 57.0899C44.8438 57.4124 44.9343 57.7726 44.9346 58.1385C44.9358 58.4303 44.8786 58.7194 44.7665 58.9888C44.6544 59.2583 44.4896 59.5026 44.2818 59.7074C44.1782 59.8126 44.0639 59.9068 43.9408 59.9885C43.5782 60.2332 43.1503 60.363 42.7129 60.3609H40.6038C40.4072 60.3605 40.2189 60.2823 40.0799 60.1433C39.9409 60.0044 39.8627 59.816 39.8623 59.6194V56.6563ZM40.6038 80.3002C40.4072 80.3 40.2187 80.2219 40.0797 80.0828C39.9407 79.9438 39.8625 79.7553 39.8623 79.5587V76.5976C39.8627 76.4011 39.9409 76.2127 40.0799 76.0737C40.2189 75.9347 40.4072 75.8565 40.6038 75.8561H42.7081C43.148 75.8538 43.5783 75.9848 43.9421 76.232C44.2472 76.4347 44.4974 76.7096 44.6706 77.0324C44.8437 77.3551 44.9344 77.7157 44.9346 78.0819C44.9362 78.3738 44.8793 78.663 44.7672 78.9325C44.655 79.202 44.49 79.4462 44.2818 79.6508C44.1783 79.7562 44.064 79.8504 43.9408 79.9319C43.5782 80.1766 43.1503 80.3064 42.7129 80.3043H40.6038V80.3002ZM42.685 88.1843V81.6645H42.7081C42.8771 81.6639 43.0457 81.6516 43.2129 81.6276C43.2695 81.6201 43.3248 81.6051 43.3807 81.5949C43.4674 81.5785 43.5547 81.5662 43.6399 81.5437V82.7184C43.6403 83.1237 43.8015 83.5123 44.0881 83.7989C44.3747 84.0855 44.7633 84.2466 45.1686 84.247H65.0977C65.2259 84.6727 65.3739 85.0899 65.5417 85.4987C65.5697 85.5669 65.597 85.6351 65.625 85.7034C65.6666 85.8002 65.7082 85.8957 65.7518 85.9905C65.835 86.1808 65.9237 86.3657 66.0076 86.528C66.0688 86.6621 66.1371 86.7928 66.2123 86.9196C66.4156 87.3044 66.6382 87.6787 66.8794 88.041C66.9071 88.081 66.9212 88.1288 66.9196 88.1774C66.9182 88.2102 66.9094 88.2421 66.8937 88.2709C66.8758 88.3049 66.8486 88.3333 66.8153 88.3526C66.782 88.3719 66.7439 88.3814 66.7054 88.38H42.8773C42.8262 88.3791 42.7775 88.3583 42.7416 88.322C42.7056 88.2857 42.6853 88.2367 42.685 88.1856V88.1843ZM62.8637 98.6372L61.346 92.6727C61.4398 92.577 61.5033 92.4557 61.5287 92.3241C61.554 92.1925 61.54 92.0563 61.4884 91.9326C61.4368 91.8089 61.3499 91.7031 61.2386 91.6285C61.1272 91.5539 60.9964 91.5137 60.8623 91.513C60.0895 91.5424 59.3197 91.3993 58.6091 91.0941C57.8984 90.7888 57.2647 90.3291 56.7539 89.7484H66.7034C66.9893 89.7486 67.27 89.6711 67.5153 89.5242C67.7606 89.3772 67.9613 89.1663 68.096 88.9141C68.2307 88.6618 68.2942 88.3777 68.2799 88.0921C68.2655 87.8065 68.1738 87.5302 68.0145 87.2927C67.9878 87.2525 67.9653 87.2129 67.9394 87.1727C67.8542 87.0403 67.7689 86.9087 67.6911 86.7777C67.5902 86.6079 67.4947 86.4366 67.4039 86.2647C67.3428 86.1599 67.287 86.052 67.2368 85.9414C67.052 85.5792 66.8917 85.2068 66.7436 84.8296L66.6222 84.5021C66.554 84.3091 66.496 84.1133 66.4367 83.9175C66.3828 83.745 66.3235 83.5765 66.2778 83.3998L66.2443 83.2702C65.8103 81.5932 65.7406 79.8427 66.0397 78.1365C66.4406 76.0172 67.4137 74.048 68.8535 72.4421L68.8576 72.438C69.3862 71.8495 69.9814 71.3244 70.6311 70.8732L70.9217 70.6726L71.0486 59.3698C71.0534 58.996 71.1061 58.6244 71.2055 58.264L71.2587 58.1406V58.101C71.4956 57.3273 71.9434 56.6348 72.5519 56.1013C73.1603 55.5678 73.9053 55.2144 74.7034 55.0805V63.5458C74.7047 64.2234 74.8112 64.8967 75.0192 65.5417L76.1475 69.0294C76.8804 71.0157 77.3674 73.0843 77.5977 75.189C77.7113 77.3111 77.6983 79.4382 77.5588 81.5587C77.5029 82.7716 77.4456 84.0253 77.4367 85.2647C77.4231 85.5458 77.5561 85.9714 78.3235 87.9626C78.4954 88.408 78.6413 88.7852 78.6864 88.921L80.3712 95.0062L62.8637 98.6372Z" fill="#313131"/>
</g>
<circle cx="57" cy="57" r="56" stroke="#E2042E" stroke-width="2" stroke-dasharray="4 4"/>
<defs>
<clipPath id="clip0_3923_6734">
<rect width="87.3125" height="87.3125" fill="white" transform="translate(13 13)"/>
</clipPath>
</defs>
</svg>
