<svg width="77" height="74" viewBox="0 0 77 74" fill="none" xmlns="http://www.w3.org/2000/svg">
<mask id="path-1-outside-1_3923_6273" maskUnits="userSpaceOnUse" x="0" y="42.3333" width="77" height="32" fill="black">
<rect fill="white" y="42.3333" width="77" height="32"/>
<path d="M8.1855 53.0251C9.51777 55.6396 10.9156 58.3218 12.357 61.0716C12.5536 60.7109 12.8157 60.17 13.187 59.4713C13.5364 58.7726 13.9514 57.9837 14.4319 57.0821C14.9123 56.1806 15.4147 55.2114 15.9388 54.1746C16.4849 53.1378 17.0309 52.0784 17.5769 50.9966C18.1447 49.9147 18.6907 48.8779 19.2368 47.8411C19.7828 46.8043 20.2851 45.8351 20.7656 44.9561H21.1369C21.3553 46.8268 21.53 48.6299 21.7266 50.388C21.9013 52.1235 22.0978 53.859 22.2726 55.5269C22.4691 57.2174 22.6439 58.8853 22.8404 60.5306C23.037 62.176 23.2335 63.8213 23.4738 65.4216C23.2554 65.3765 23.0151 65.354 22.8186 65.354C22.6002 65.354 22.3818 65.354 22.1634 65.354C21.945 65.354 21.7047 65.354 21.5082 65.354C21.2898 65.354 21.0713 65.3765 20.8529 65.4216C20.6345 62.8296 20.438 60.3052 20.2196 57.871C20.0012 55.4368 19.7609 52.9575 19.4552 50.4105H19.3896C18.0792 52.8673 16.8125 55.3015 15.5457 57.7358C14.279 60.17 13.0996 62.6944 11.9639 65.354H11.7018C10.5661 62.8972 9.38672 60.4405 8.14182 57.9612C6.89691 55.5044 5.65201 52.98 4.40711 50.4105H4.34158C4.21054 51.6277 4.05766 52.9349 3.90478 54.3549C3.75189 55.7749 3.59901 57.1723 3.46797 58.5472C3.33693 59.9221 3.22772 61.2293 3.11852 62.4464C3.03116 63.6636 2.98748 64.6553 2.98748 65.4441C2.68171 65.3765 2.35411 65.3765 1.98282 65.3765C1.63337 65.3765 1.28393 65.3991 1 65.4441C1.24024 63.8664 1.50233 62.1985 1.76441 60.4405C2.0265 58.6824 2.28858 56.9244 2.52883 55.1438C2.76907 53.3632 3.00932 51.6277 3.20588 49.8921C3.42429 48.1566 3.59901 46.5338 3.75189 44.9561H4.23238C5.54281 47.7284 6.85323 50.4105 8.1855 53.0251Z"/>
<path d="M27.274 52.9349C28.1258 52.2813 28.9121 51.8305 29.6328 51.5826C30.3535 51.3572 31.0961 51.2219 31.8387 51.2219C32.5157 51.2219 33.1491 51.3346 33.7169 51.5375C34.2848 51.7403 34.7653 52.0334 35.1584 52.4165C35.5515 52.7997 35.8573 53.2505 36.0975 53.7914C36.316 54.3323 36.447 54.9184 36.447 55.572C36.447 56.6764 36.4252 57.7808 36.3815 58.8853C36.3378 59.9897 36.316 61.1617 36.316 62.3788C36.316 62.6042 36.316 62.8521 36.3378 63.1226C36.3378 63.3931 36.3815 63.6185 36.4688 63.8213C36.5344 64.0242 36.6436 64.2045 36.7964 64.3397C36.9275 64.475 37.1459 64.5426 37.4298 64.5426C37.5172 64.5426 37.6264 64.5426 37.7356 64.52C37.8448 64.52 37.9321 64.475 38.0413 64.4074V65.061C37.8229 65.1511 37.5827 65.2413 37.2551 65.2864C36.9493 65.354 36.5999 65.3765 36.2286 65.3765C35.6171 65.3765 35.1584 65.2188 34.8308 64.9032C34.5032 64.5877 34.3285 64.1594 34.263 63.6636C33.5859 64.3623 32.9088 64.8807 32.2536 65.2188C31.5984 65.5568 30.7903 65.7146 29.8075 65.7146C29.327 65.7146 28.8684 65.647 28.4097 65.5118C27.9511 65.3765 27.5579 65.1511 27.2085 64.8356C26.8591 64.52 26.5751 64.1594 26.3567 63.7086C26.1383 63.2804 26.0291 62.762 26.0291 62.1985C26.0291 61.0265 26.3786 60.1249 27.0993 59.4713C27.7982 58.8176 28.781 58.3894 30.0259 58.1865C31.0524 58.0062 31.8387 57.871 32.4284 57.7358C32.9962 57.6005 33.433 57.4878 33.6951 57.3301C33.979 57.1948 34.1319 57.037 34.1974 56.8567C34.263 56.6764 34.2848 56.4285 34.2848 56.1355C34.2848 55.6396 34.2193 55.1888 34.1101 54.738C34.0009 54.2873 33.8261 53.9041 33.5641 53.566C33.3238 53.2279 32.9962 52.9575 32.6031 52.7546C32.21 52.5518 31.7295 52.4391 31.1616 52.4391C30.3972 52.4391 29.6983 52.6194 29.0431 52.9575C28.3879 53.3181 27.9074 53.7914 27.5798 54.4225H27.274V52.9349ZM34.2848 58.1415C33.9572 58.2542 33.5859 58.3669 33.1709 58.4345C32.756 58.5021 32.3192 58.5922 31.8823 58.6824C31.4455 58.7726 31.0087 58.8853 30.5938 59.0205C30.1788 59.1557 29.7857 59.336 29.4581 59.584C29.1305 59.8094 28.8684 60.1024 28.6718 60.463C28.4752 60.8236 28.366 61.2519 28.366 61.8153C28.366 62.7395 28.6281 63.4156 29.1305 63.8889C29.6328 64.3623 30.2006 64.5877 30.834 64.5877C31.5547 64.5877 32.21 64.3848 32.7996 63.9791C33.3893 63.5734 33.848 63.1001 34.1756 62.5366L34.2848 58.1415Z"/>
<path d="M40.8588 60.0347C40.8588 59.3811 40.8588 58.6599 40.8369 57.871C40.8369 57.0821 40.8151 56.3158 40.7932 55.5495C40.7714 54.7831 40.7496 54.0393 40.7277 53.3406C40.7059 52.6419 40.6622 52.0334 40.6185 51.5375C41.1427 51.6276 41.5795 51.6727 41.8853 51.6727C42.2129 51.6727 42.6278 51.6276 43.152 51.5375C43.0865 52.0559 43.021 52.5292 42.9773 53.0025C42.9336 53.4759 42.9118 53.9492 42.9118 54.4H42.9773C43.1083 54.0844 43.3049 53.7463 43.5451 53.3857C43.7854 53.0251 44.113 52.687 44.4843 52.3714C44.8774 52.0559 45.3361 51.7854 45.8821 51.56C46.4281 51.3346 47.0614 51.2445 47.7603 51.2445C48.4811 51.2445 49.18 51.3797 49.8789 51.6727C50.5778 51.9657 51.1893 52.394 51.7353 52.98C52.2813 53.566 52.7181 54.3098 53.0457 55.2114C53.3733 56.1129 53.548 57.1948 53.548 58.4345C53.548 59.6741 53.3733 60.756 53.002 61.6801C52.6526 62.6042 52.1721 63.348 51.6043 63.9566C51.0364 64.5651 50.3812 65.0159 49.6386 65.2864C48.896 65.5794 48.1753 65.7146 47.4327 65.7146C45.3579 65.7146 43.8727 64.7905 42.9773 62.9423H42.9118V64.7905C42.9118 65.4216 42.9118 66.1203 42.9336 66.8866C42.9336 67.653 42.9554 68.4193 42.9773 69.1856C42.9991 69.952 43.021 70.6732 43.0428 71.3719C43.0646 72.0707 43.1083 72.6567 43.152 73.1525C42.6278 73.0624 42.191 73.0173 41.8853 73.0173C41.5577 73.0173 41.1427 73.0624 40.6185 73.1525C40.6622 72.6567 40.684 72.0707 40.7277 71.3719C40.7496 70.6732 40.7714 69.952 40.7932 69.1856C40.8151 68.4193 40.8369 67.653 40.8369 66.8866C40.8369 66.1203 40.8588 65.4216 40.8588 64.7905V60.0347ZM51.0801 58.4119C51.0801 57.2399 50.9709 56.2707 50.7306 55.5269C50.4904 54.7606 50.1846 54.152 49.8133 53.7013C49.4421 53.2505 49.0271 52.9349 48.5466 52.7546C48.0661 52.5743 47.6075 52.4841 47.1488 52.4841C46.3844 52.4841 45.751 52.6419 45.205 52.98C44.659 53.3181 44.2222 53.7463 43.8946 54.3098C43.5451 54.8733 43.3049 55.5269 43.152 56.2707C42.9991 57.0145 42.9336 57.8259 42.9336 58.6599C42.9336 62.7169 44.3096 64.7454 47.0614 64.7454C47.7385 64.7454 48.3282 64.5877 48.8305 64.2721C49.3328 63.9566 49.7478 63.5058 50.0754 62.9198C50.403 62.3337 50.6433 61.6801 50.818 60.8912C51.0146 60.1024 51.0801 59.291 51.0801 58.4119Z"/>
<path d="M57.6541 49.6217C57.6541 48.8328 57.6322 48.0665 57.6104 47.3001C57.5885 46.5338 57.5667 45.8126 57.5448 45.1138C57.523 44.4151 57.4793 43.8291 57.4356 43.3333C57.9598 43.4234 58.3966 43.4685 58.7024 43.4685C59.03 43.4685 59.445 43.4234 59.9691 43.3333C59.9255 43.8291 59.9036 44.4151 59.8599 45.1138C59.8381 45.8126 59.8163 46.5338 59.7944 47.3001C59.7726 48.0665 59.7507 48.8328 59.7507 49.6217C59.7507 50.4105 59.7289 51.1318 59.7289 51.7854V57.0821C59.7289 57.7358 59.7289 58.457 59.7507 59.2459C59.7507 60.0347 59.7726 60.8011 59.7944 61.5674C59.8163 62.3337 59.8381 63.055 59.8599 63.7312C59.8818 64.4073 59.9255 64.9708 59.9691 65.4216C59.5323 65.3765 59.1174 65.354 58.7024 65.354C58.2874 65.354 57.8506 65.3765 57.4356 65.4216C57.4793 64.9708 57.5012 64.4073 57.5448 63.7312C57.5667 63.055 57.5885 62.3337 57.6104 61.5674C57.6322 60.8011 57.6541 60.0347 57.6541 59.2459C57.6541 58.457 57.6759 57.7358 57.6759 57.0821V51.7854C57.6541 51.1318 57.6541 50.4105 57.6541 49.6217Z"/>
<path d="M63.6383 58.9303C63.6383 56.5412 64.1843 54.6479 65.2982 53.2955C66.4121 51.9207 68.0064 51.2445 70.1249 51.2445C71.1296 51.2445 71.9814 51.4023 72.7239 51.7178C73.4447 52.0333 74.0562 52.4616 74.5585 53.0025C75.039 53.5435 75.4103 54.1746 75.6506 54.8958C75.8908 55.6171 76 56.3834 76 57.2174C76 57.4202 76 57.6005 75.9782 57.7808C75.9782 57.9611 75.9563 58.164 75.9345 58.3443C74.908 58.3218 73.9033 58.2992 72.8987 58.2767C71.894 58.2542 70.8893 58.2542 69.8628 58.2542C69.2295 58.2542 68.6179 58.2542 68.0064 58.2767C67.3949 58.2992 66.7833 58.3218 66.15 58.3443C66.1281 58.4345 66.1281 58.5922 66.1281 58.7726V59.1557C66.1281 59.9221 66.2373 60.6208 66.4557 61.2969C66.6741 61.9506 66.9799 62.5366 67.3949 63.0099C67.8098 63.4832 68.3122 63.8664 68.9237 64.1594C69.5352 64.4524 70.2341 64.5877 71.0204 64.5877C71.3917 64.5877 71.7848 64.5426 72.1779 64.4299C72.5711 64.3172 72.9642 64.182 73.3355 64.0016C73.7068 63.8213 74.078 63.5959 74.4057 63.348C74.7333 63.1001 75.0172 62.8296 75.2793 62.5366L75.4103 62.6267L75.2574 64.0242C74.6896 64.4975 73.9907 64.9032 73.1389 65.2188C72.2871 65.5568 71.4135 65.7146 70.5181 65.7146C69.4916 65.7146 68.5743 65.5568 67.7225 65.2413C66.8707 64.9257 66.15 64.4524 65.5384 63.8439C64.9269 63.2353 64.4464 62.5141 64.1188 61.6576C63.813 60.8236 63.6383 59.8995 63.6383 58.9303ZM70.1904 52.1686C69.4916 52.1686 68.9019 52.3264 68.4214 52.6644C67.9409 53.0025 67.5478 53.4082 67.2202 53.9041C66.9144 54.4 66.6741 54.9409 66.5213 55.5495C66.3684 56.1355 66.2592 56.699 66.2155 57.2399C66.8052 57.2624 67.4167 57.285 68.0501 57.3075C68.6835 57.3301 69.295 57.33 69.9065 57.33C70.5399 57.33 71.1733 57.3301 71.8066 57.3075C72.44 57.285 73.0734 57.2624 73.6849 57.2399C73.6849 56.7215 73.6412 56.158 73.5539 55.572C73.4665 54.986 73.2918 54.445 73.0515 53.9266C72.7895 53.4308 72.44 53.0025 71.9814 52.6644C71.5227 52.3489 70.933 52.1686 70.1904 52.1686Z"/>
</mask>
<path d="M8.1855 53.0251C9.51777 55.6396 10.9156 58.3218 12.357 61.0716C12.5536 60.7109 12.8157 60.17 13.187 59.4713C13.5364 58.7726 13.9514 57.9837 14.4319 57.0821C14.9123 56.1806 15.4147 55.2114 15.9388 54.1746C16.4849 53.1378 17.0309 52.0784 17.5769 50.9966C18.1447 49.9147 18.6907 48.8779 19.2368 47.8411C19.7828 46.8043 20.2851 45.8351 20.7656 44.9561H21.1369C21.3553 46.8268 21.53 48.6299 21.7266 50.388C21.9013 52.1235 22.0978 53.859 22.2726 55.5269C22.4691 57.2174 22.6439 58.8853 22.8404 60.5306C23.037 62.176 23.2335 63.8213 23.4738 65.4216C23.2554 65.3765 23.0151 65.354 22.8186 65.354C22.6002 65.354 22.3818 65.354 22.1634 65.354C21.945 65.354 21.7047 65.354 21.5082 65.354C21.2898 65.354 21.0713 65.3765 20.8529 65.4216C20.6345 62.8296 20.438 60.3052 20.2196 57.871C20.0012 55.4368 19.7609 52.9575 19.4552 50.4105H19.3896C18.0792 52.8673 16.8125 55.3015 15.5457 57.7358C14.279 60.17 13.0996 62.6944 11.9639 65.354H11.7018C10.5661 62.8972 9.38672 60.4405 8.14182 57.9612C6.89691 55.5044 5.65201 52.98 4.40711 50.4105H4.34158C4.21054 51.6277 4.05766 52.9349 3.90478 54.3549C3.75189 55.7749 3.59901 57.1723 3.46797 58.5472C3.33693 59.9221 3.22772 61.2293 3.11852 62.4464C3.03116 63.6636 2.98748 64.6553 2.98748 65.4441C2.68171 65.3765 2.35411 65.3765 1.98282 65.3765C1.63337 65.3765 1.28393 65.3991 1 65.4441C1.24024 63.8664 1.50233 62.1985 1.76441 60.4405C2.0265 58.6824 2.28858 56.9244 2.52883 55.1438C2.76907 53.3632 3.00932 51.6277 3.20588 49.8921C3.42429 48.1566 3.59901 46.5338 3.75189 44.9561H4.23238C5.54281 47.7284 6.85323 50.4105 8.1855 53.0251Z" fill="#252525"/>
<path d="M27.274 52.9349C28.1258 52.2813 28.9121 51.8305 29.6328 51.5826C30.3535 51.3572 31.0961 51.2219 31.8387 51.2219C32.5157 51.2219 33.1491 51.3346 33.7169 51.5375C34.2848 51.7403 34.7653 52.0334 35.1584 52.4165C35.5515 52.7997 35.8573 53.2505 36.0975 53.7914C36.316 54.3323 36.447 54.9184 36.447 55.572C36.447 56.6764 36.4252 57.7808 36.3815 58.8853C36.3378 59.9897 36.316 61.1617 36.316 62.3788C36.316 62.6042 36.316 62.8521 36.3378 63.1226C36.3378 63.3931 36.3815 63.6185 36.4688 63.8213C36.5344 64.0242 36.6436 64.2045 36.7964 64.3397C36.9275 64.475 37.1459 64.5426 37.4298 64.5426C37.5172 64.5426 37.6264 64.5426 37.7356 64.52C37.8448 64.52 37.9321 64.475 38.0413 64.4074V65.061C37.8229 65.1511 37.5827 65.2413 37.2551 65.2864C36.9493 65.354 36.5999 65.3765 36.2286 65.3765C35.6171 65.3765 35.1584 65.2188 34.8308 64.9032C34.5032 64.5877 34.3285 64.1594 34.263 63.6636C33.5859 64.3623 32.9088 64.8807 32.2536 65.2188C31.5984 65.5568 30.7903 65.7146 29.8075 65.7146C29.327 65.7146 28.8684 65.647 28.4097 65.5118C27.9511 65.3765 27.5579 65.1511 27.2085 64.8356C26.8591 64.52 26.5751 64.1594 26.3567 63.7086C26.1383 63.2804 26.0291 62.762 26.0291 62.1985C26.0291 61.0265 26.3786 60.1249 27.0993 59.4713C27.7982 58.8176 28.781 58.3894 30.0259 58.1865C31.0524 58.0062 31.8387 57.871 32.4284 57.7358C32.9962 57.6005 33.433 57.4878 33.6951 57.3301C33.979 57.1948 34.1319 57.037 34.1974 56.8567C34.263 56.6764 34.2848 56.4285 34.2848 56.1355C34.2848 55.6396 34.2193 55.1888 34.1101 54.738C34.0009 54.2873 33.8261 53.9041 33.5641 53.566C33.3238 53.2279 32.9962 52.9575 32.6031 52.7546C32.21 52.5518 31.7295 52.4391 31.1616 52.4391C30.3972 52.4391 29.6983 52.6194 29.0431 52.9575C28.3879 53.3181 27.9074 53.7914 27.5798 54.4225H27.274V52.9349ZM34.2848 58.1415C33.9572 58.2542 33.5859 58.3669 33.1709 58.4345C32.756 58.5021 32.3192 58.5922 31.8823 58.6824C31.4455 58.7726 31.0087 58.8853 30.5938 59.0205C30.1788 59.1557 29.7857 59.336 29.4581 59.584C29.1305 59.8094 28.8684 60.1024 28.6718 60.463C28.4752 60.8236 28.366 61.2519 28.366 61.8153C28.366 62.7395 28.6281 63.4156 29.1305 63.8889C29.6328 64.3623 30.2006 64.5877 30.834 64.5877C31.5547 64.5877 32.21 64.3848 32.7996 63.9791C33.3893 63.5734 33.848 63.1001 34.1756 62.5366L34.2848 58.1415Z" fill="#252525"/>
<path d="M40.8588 60.0347C40.8588 59.3811 40.8588 58.6599 40.8369 57.871C40.8369 57.0821 40.8151 56.3158 40.7932 55.5495C40.7714 54.7831 40.7496 54.0393 40.7277 53.3406C40.7059 52.6419 40.6622 52.0334 40.6185 51.5375C41.1427 51.6276 41.5795 51.6727 41.8853 51.6727C42.2129 51.6727 42.6278 51.6276 43.152 51.5375C43.0865 52.0559 43.021 52.5292 42.9773 53.0025C42.9336 53.4759 42.9118 53.9492 42.9118 54.4H42.9773C43.1083 54.0844 43.3049 53.7463 43.5451 53.3857C43.7854 53.0251 44.113 52.687 44.4843 52.3714C44.8774 52.0559 45.3361 51.7854 45.8821 51.56C46.4281 51.3346 47.0614 51.2445 47.7603 51.2445C48.4811 51.2445 49.18 51.3797 49.8789 51.6727C50.5778 51.9657 51.1893 52.394 51.7353 52.98C52.2813 53.566 52.7181 54.3098 53.0457 55.2114C53.3733 56.1129 53.548 57.1948 53.548 58.4345C53.548 59.6741 53.3733 60.756 53.002 61.6801C52.6526 62.6042 52.1721 63.348 51.6043 63.9566C51.0364 64.5651 50.3812 65.0159 49.6386 65.2864C48.896 65.5794 48.1753 65.7146 47.4327 65.7146C45.3579 65.7146 43.8727 64.7905 42.9773 62.9423H42.9118V64.7905C42.9118 65.4216 42.9118 66.1203 42.9336 66.8866C42.9336 67.653 42.9554 68.4193 42.9773 69.1856C42.9991 69.952 43.021 70.6732 43.0428 71.3719C43.0646 72.0707 43.1083 72.6567 43.152 73.1525C42.6278 73.0624 42.191 73.0173 41.8853 73.0173C41.5577 73.0173 41.1427 73.0624 40.6185 73.1525C40.6622 72.6567 40.684 72.0707 40.7277 71.3719C40.7496 70.6732 40.7714 69.952 40.7932 69.1856C40.8151 68.4193 40.8369 67.653 40.8369 66.8866C40.8369 66.1203 40.8588 65.4216 40.8588 64.7905V60.0347ZM51.0801 58.4119C51.0801 57.2399 50.9709 56.2707 50.7306 55.5269C50.4904 54.7606 50.1846 54.152 49.8133 53.7013C49.4421 53.2505 49.0271 52.9349 48.5466 52.7546C48.0661 52.5743 47.6075 52.4841 47.1488 52.4841C46.3844 52.4841 45.751 52.6419 45.205 52.98C44.659 53.3181 44.2222 53.7463 43.8946 54.3098C43.5451 54.8733 43.3049 55.5269 43.152 56.2707C42.9991 57.0145 42.9336 57.8259 42.9336 58.6599C42.9336 62.7169 44.3096 64.7454 47.0614 64.7454C47.7385 64.7454 48.3282 64.5877 48.8305 64.2721C49.3328 63.9566 49.7478 63.5058 50.0754 62.9198C50.403 62.3337 50.6433 61.6801 50.818 60.8912C51.0146 60.1024 51.0801 59.291 51.0801 58.4119Z" fill="#252525"/>
<path d="M57.6541 49.6217C57.6541 48.8328 57.6322 48.0665 57.6104 47.3001C57.5885 46.5338 57.5667 45.8126 57.5448 45.1138C57.523 44.4151 57.4793 43.8291 57.4356 43.3333C57.9598 43.4234 58.3966 43.4685 58.7024 43.4685C59.03 43.4685 59.445 43.4234 59.9691 43.3333C59.9255 43.8291 59.9036 44.4151 59.8599 45.1138C59.8381 45.8126 59.8163 46.5338 59.7944 47.3001C59.7726 48.0665 59.7507 48.8328 59.7507 49.6217C59.7507 50.4105 59.7289 51.1318 59.7289 51.7854V57.0821C59.7289 57.7358 59.7289 58.457 59.7507 59.2459C59.7507 60.0347 59.7726 60.8011 59.7944 61.5674C59.8163 62.3337 59.8381 63.055 59.8599 63.7312C59.8818 64.4073 59.9255 64.9708 59.9691 65.4216C59.5323 65.3765 59.1174 65.354 58.7024 65.354C58.2874 65.354 57.8506 65.3765 57.4356 65.4216C57.4793 64.9708 57.5012 64.4073 57.5448 63.7312C57.5667 63.055 57.5885 62.3337 57.6104 61.5674C57.6322 60.8011 57.6541 60.0347 57.6541 59.2459C57.6541 58.457 57.6759 57.7358 57.6759 57.0821V51.7854C57.6541 51.1318 57.6541 50.4105 57.6541 49.6217Z" fill="#252525"/>
<path d="M63.6383 58.9303C63.6383 56.5412 64.1843 54.6479 65.2982 53.2955C66.4121 51.9207 68.0064 51.2445 70.1249 51.2445C71.1296 51.2445 71.9814 51.4023 72.7239 51.7178C73.4447 52.0333 74.0562 52.4616 74.5585 53.0025C75.039 53.5435 75.4103 54.1746 75.6506 54.8958C75.8908 55.6171 76 56.3834 76 57.2174C76 57.4202 76 57.6005 75.9782 57.7808C75.9782 57.9611 75.9563 58.164 75.9345 58.3443C74.908 58.3218 73.9033 58.2992 72.8987 58.2767C71.894 58.2542 70.8893 58.2542 69.8628 58.2542C69.2295 58.2542 68.6179 58.2542 68.0064 58.2767C67.3949 58.2992 66.7833 58.3218 66.15 58.3443C66.1281 58.4345 66.1281 58.5922 66.1281 58.7726V59.1557C66.1281 59.9221 66.2373 60.6208 66.4557 61.2969C66.6741 61.9506 66.9799 62.5366 67.3949 63.0099C67.8098 63.4832 68.3122 63.8664 68.9237 64.1594C69.5352 64.4524 70.2341 64.5877 71.0204 64.5877C71.3917 64.5877 71.7848 64.5426 72.1779 64.4299C72.5711 64.3172 72.9642 64.182 73.3355 64.0016C73.7068 63.8213 74.078 63.5959 74.4057 63.348C74.7333 63.1001 75.0172 62.8296 75.2793 62.5366L75.4103 62.6267L75.2574 64.0242C74.6896 64.4975 73.9907 64.9032 73.1389 65.2188C72.2871 65.5568 71.4135 65.7146 70.5181 65.7146C69.4916 65.7146 68.5743 65.5568 67.7225 65.2413C66.8707 64.9257 66.15 64.4524 65.5384 63.8439C64.9269 63.2353 64.4464 62.5141 64.1188 61.6576C63.813 60.8236 63.6383 59.8995 63.6383 58.9303ZM70.1904 52.1686C69.4916 52.1686 68.9019 52.3264 68.4214 52.6644C67.9409 53.0025 67.5478 53.4082 67.2202 53.9041C66.9144 54.4 66.6741 54.9409 66.5213 55.5495C66.3684 56.1355 66.2592 56.699 66.2155 57.2399C66.8052 57.2624 67.4167 57.285 68.0501 57.3075C68.6835 57.3301 69.295 57.33 69.9065 57.33C70.5399 57.33 71.1733 57.3301 71.8066 57.3075C72.44 57.285 73.0734 57.2624 73.6849 57.2399C73.6849 56.7215 73.6412 56.158 73.5539 55.572C73.4665 54.986 73.2918 54.445 73.0515 53.9266C72.7895 53.4308 72.44 53.0025 71.9814 52.6644C71.5227 52.3489 70.933 52.1686 70.1904 52.1686Z" fill="#252525"/>
<path d="M8.1855 53.0251C9.51777 55.6396 10.9156 58.3218 12.357 61.0716C12.5536 60.7109 12.8157 60.17 13.187 59.4713C13.5364 58.7726 13.9514 57.9837 14.4319 57.0821C14.9123 56.1806 15.4147 55.2114 15.9388 54.1746C16.4849 53.1378 17.0309 52.0784 17.5769 50.9966C18.1447 49.9147 18.6907 48.8779 19.2368 47.8411C19.7828 46.8043 20.2851 45.8351 20.7656 44.9561H21.1369C21.3553 46.8268 21.53 48.6299 21.7266 50.388C21.9013 52.1235 22.0978 53.859 22.2726 55.5269C22.4691 57.2174 22.6439 58.8853 22.8404 60.5306C23.037 62.176 23.2335 63.8213 23.4738 65.4216C23.2554 65.3765 23.0151 65.354 22.8186 65.354C22.6002 65.354 22.3818 65.354 22.1634 65.354C21.945 65.354 21.7047 65.354 21.5082 65.354C21.2898 65.354 21.0713 65.3765 20.8529 65.4216C20.6345 62.8296 20.438 60.3052 20.2196 57.871C20.0012 55.4368 19.7609 52.9575 19.4552 50.4105H19.3896C18.0792 52.8673 16.8125 55.3015 15.5457 57.7358C14.279 60.17 13.0996 62.6944 11.9639 65.354H11.7018C10.5661 62.8972 9.38672 60.4405 8.14182 57.9612C6.89691 55.5044 5.65201 52.98 4.40711 50.4105H4.34158C4.21054 51.6277 4.05766 52.9349 3.90478 54.3549C3.75189 55.7749 3.59901 57.1723 3.46797 58.5472C3.33693 59.9221 3.22772 61.2293 3.11852 62.4464C3.03116 63.6636 2.98748 64.6553 2.98748 65.4441C2.68171 65.3765 2.35411 65.3765 1.98282 65.3765C1.63337 65.3765 1.28393 65.3991 1 65.4441C1.24024 63.8664 1.50233 62.1985 1.76441 60.4405C2.0265 58.6824 2.28858 56.9244 2.52883 55.1438C2.76907 53.3632 3.00932 51.6277 3.20588 49.8921C3.42429 48.1566 3.59901 46.5338 3.75189 44.9561H4.23238C5.54281 47.7284 6.85323 50.4105 8.1855 53.0251Z" stroke="#252525" stroke-width="0.6" mask="url(#path-1-outside-1_3923_6273)"/>
<path d="M27.274 52.9349C28.1258 52.2813 28.9121 51.8305 29.6328 51.5826C30.3535 51.3572 31.0961 51.2219 31.8387 51.2219C32.5157 51.2219 33.1491 51.3346 33.7169 51.5375C34.2848 51.7403 34.7653 52.0334 35.1584 52.4165C35.5515 52.7997 35.8573 53.2505 36.0975 53.7914C36.316 54.3323 36.447 54.9184 36.447 55.572C36.447 56.6764 36.4252 57.7808 36.3815 58.8853C36.3378 59.9897 36.316 61.1617 36.316 62.3788C36.316 62.6042 36.316 62.8521 36.3378 63.1226C36.3378 63.3931 36.3815 63.6185 36.4688 63.8213C36.5344 64.0242 36.6436 64.2045 36.7964 64.3397C36.9275 64.475 37.1459 64.5426 37.4298 64.5426C37.5172 64.5426 37.6264 64.5426 37.7356 64.52C37.8448 64.52 37.9321 64.475 38.0413 64.4074V65.061C37.8229 65.1511 37.5827 65.2413 37.2551 65.2864C36.9493 65.354 36.5999 65.3765 36.2286 65.3765C35.6171 65.3765 35.1584 65.2188 34.8308 64.9032C34.5032 64.5877 34.3285 64.1594 34.263 63.6636C33.5859 64.3623 32.9088 64.8807 32.2536 65.2188C31.5984 65.5568 30.7903 65.7146 29.8075 65.7146C29.327 65.7146 28.8684 65.647 28.4097 65.5118C27.9511 65.3765 27.5579 65.1511 27.2085 64.8356C26.8591 64.52 26.5751 64.1594 26.3567 63.7086C26.1383 63.2804 26.0291 62.762 26.0291 62.1985C26.0291 61.0265 26.3786 60.1249 27.0993 59.4713C27.7982 58.8176 28.781 58.3894 30.0259 58.1865C31.0524 58.0062 31.8387 57.871 32.4284 57.7358C32.9962 57.6005 33.433 57.4878 33.6951 57.3301C33.979 57.1948 34.1319 57.037 34.1974 56.8567C34.263 56.6764 34.2848 56.4285 34.2848 56.1355C34.2848 55.6396 34.2193 55.1888 34.1101 54.738C34.0009 54.2873 33.8261 53.9041 33.5641 53.566C33.3238 53.2279 32.9962 52.9575 32.6031 52.7546C32.21 52.5518 31.7295 52.4391 31.1616 52.4391C30.3972 52.4391 29.6983 52.6194 29.0431 52.9575C28.3879 53.3181 27.9074 53.7914 27.5798 54.4225H27.274V52.9349ZM34.2848 58.1415C33.9572 58.2542 33.5859 58.3669 33.1709 58.4345C32.756 58.5021 32.3192 58.5922 31.8823 58.6824C31.4455 58.7726 31.0087 58.8853 30.5938 59.0205C30.1788 59.1557 29.7857 59.336 29.4581 59.584C29.1305 59.8094 28.8684 60.1024 28.6718 60.463C28.4752 60.8236 28.366 61.2519 28.366 61.8153C28.366 62.7395 28.6281 63.4156 29.1305 63.8889C29.6328 64.3623 30.2006 64.5877 30.834 64.5877C31.5547 64.5877 32.21 64.3848 32.7996 63.9791C33.3893 63.5734 33.848 63.1001 34.1756 62.5366L34.2848 58.1415Z" stroke="#252525" stroke-width="0.6" mask="url(#path-1-outside-1_3923_6273)"/>
<path d="M40.8588 60.0347C40.8588 59.3811 40.8588 58.6599 40.8369 57.871C40.8369 57.0821 40.8151 56.3158 40.7932 55.5495C40.7714 54.7831 40.7496 54.0393 40.7277 53.3406C40.7059 52.6419 40.6622 52.0334 40.6185 51.5375C41.1427 51.6276 41.5795 51.6727 41.8853 51.6727C42.2129 51.6727 42.6278 51.6276 43.152 51.5375C43.0865 52.0559 43.021 52.5292 42.9773 53.0025C42.9336 53.4759 42.9118 53.9492 42.9118 54.4H42.9773C43.1083 54.0844 43.3049 53.7463 43.5451 53.3857C43.7854 53.0251 44.113 52.687 44.4843 52.3714C44.8774 52.0559 45.3361 51.7854 45.8821 51.56C46.4281 51.3346 47.0614 51.2445 47.7603 51.2445C48.4811 51.2445 49.18 51.3797 49.8789 51.6727C50.5778 51.9657 51.1893 52.394 51.7353 52.98C52.2813 53.566 52.7181 54.3098 53.0457 55.2114C53.3733 56.1129 53.548 57.1948 53.548 58.4345C53.548 59.6741 53.3733 60.756 53.002 61.6801C52.6526 62.6042 52.1721 63.348 51.6043 63.9566C51.0364 64.5651 50.3812 65.0159 49.6386 65.2864C48.896 65.5794 48.1753 65.7146 47.4327 65.7146C45.3579 65.7146 43.8727 64.7905 42.9773 62.9423H42.9118V64.7905C42.9118 65.4216 42.9118 66.1203 42.9336 66.8866C42.9336 67.653 42.9554 68.4193 42.9773 69.1856C42.9991 69.952 43.021 70.6732 43.0428 71.3719C43.0646 72.0707 43.1083 72.6567 43.152 73.1525C42.6278 73.0624 42.191 73.0173 41.8853 73.0173C41.5577 73.0173 41.1427 73.0624 40.6185 73.1525C40.6622 72.6567 40.684 72.0707 40.7277 71.3719C40.7496 70.6732 40.7714 69.952 40.7932 69.1856C40.8151 68.4193 40.8369 67.653 40.8369 66.8866C40.8369 66.1203 40.8588 65.4216 40.8588 64.7905V60.0347ZM51.0801 58.4119C51.0801 57.2399 50.9709 56.2707 50.7306 55.5269C50.4904 54.7606 50.1846 54.152 49.8133 53.7013C49.4421 53.2505 49.0271 52.9349 48.5466 52.7546C48.0661 52.5743 47.6075 52.4841 47.1488 52.4841C46.3844 52.4841 45.751 52.6419 45.205 52.98C44.659 53.3181 44.2222 53.7463 43.8946 54.3098C43.5451 54.8733 43.3049 55.5269 43.152 56.2707C42.9991 57.0145 42.9336 57.8259 42.9336 58.6599C42.9336 62.7169 44.3096 64.7454 47.0614 64.7454C47.7385 64.7454 48.3282 64.5877 48.8305 64.2721C49.3328 63.9566 49.7478 63.5058 50.0754 62.9198C50.403 62.3337 50.6433 61.6801 50.818 60.8912C51.0146 60.1024 51.0801 59.291 51.0801 58.4119Z" stroke="#252525" stroke-width="0.6" mask="url(#path-1-outside-1_3923_6273)"/>
<path d="M57.6541 49.6217C57.6541 48.8328 57.6322 48.0665 57.6104 47.3001C57.5885 46.5338 57.5667 45.8126 57.5448 45.1138C57.523 44.4151 57.4793 43.8291 57.4356 43.3333C57.9598 43.4234 58.3966 43.4685 58.7024 43.4685C59.03 43.4685 59.445 43.4234 59.9691 43.3333C59.9255 43.8291 59.9036 44.4151 59.8599 45.1138C59.8381 45.8126 59.8163 46.5338 59.7944 47.3001C59.7726 48.0665 59.7507 48.8328 59.7507 49.6217C59.7507 50.4105 59.7289 51.1318 59.7289 51.7854V57.0821C59.7289 57.7358 59.7289 58.457 59.7507 59.2459C59.7507 60.0347 59.7726 60.8011 59.7944 61.5674C59.8163 62.3337 59.8381 63.055 59.8599 63.7312C59.8818 64.4073 59.9255 64.9708 59.9691 65.4216C59.5323 65.3765 59.1174 65.354 58.7024 65.354C58.2874 65.354 57.8506 65.3765 57.4356 65.4216C57.4793 64.9708 57.5012 64.4073 57.5448 63.7312C57.5667 63.055 57.5885 62.3337 57.6104 61.5674C57.6322 60.8011 57.6541 60.0347 57.6541 59.2459C57.6541 58.457 57.6759 57.7358 57.6759 57.0821V51.7854C57.6541 51.1318 57.6541 50.4105 57.6541 49.6217Z" stroke="#252525" stroke-width="0.6" mask="url(#path-1-outside-1_3923_6273)"/>
<path d="M63.6383 58.9303C63.6383 56.5412 64.1843 54.6479 65.2982 53.2955C66.4121 51.9207 68.0064 51.2445 70.1249 51.2445C71.1296 51.2445 71.9814 51.4023 72.7239 51.7178C73.4447 52.0333 74.0562 52.4616 74.5585 53.0025C75.039 53.5435 75.4103 54.1746 75.6506 54.8958C75.8908 55.6171 76 56.3834 76 57.2174C76 57.4202 76 57.6005 75.9782 57.7808C75.9782 57.9611 75.9563 58.164 75.9345 58.3443C74.908 58.3218 73.9033 58.2992 72.8987 58.2767C71.894 58.2542 70.8893 58.2542 69.8628 58.2542C69.2295 58.2542 68.6179 58.2542 68.0064 58.2767C67.3949 58.2992 66.7833 58.3218 66.15 58.3443C66.1281 58.4345 66.1281 58.5922 66.1281 58.7726V59.1557C66.1281 59.9221 66.2373 60.6208 66.4557 61.2969C66.6741 61.9506 66.9799 62.5366 67.3949 63.0099C67.8098 63.4832 68.3122 63.8664 68.9237 64.1594C69.5352 64.4524 70.2341 64.5877 71.0204 64.5877C71.3917 64.5877 71.7848 64.5426 72.1779 64.4299C72.5711 64.3172 72.9642 64.182 73.3355 64.0016C73.7068 63.8213 74.078 63.5959 74.4057 63.348C74.7333 63.1001 75.0172 62.8296 75.2793 62.5366L75.4103 62.6267L75.2574 64.0242C74.6896 64.4975 73.9907 64.9032 73.1389 65.2188C72.2871 65.5568 71.4135 65.7146 70.5181 65.7146C69.4916 65.7146 68.5743 65.5568 67.7225 65.2413C66.8707 64.9257 66.15 64.4524 65.5384 63.8439C64.9269 63.2353 64.4464 62.5141 64.1188 61.6576C63.813 60.8236 63.6383 59.8995 63.6383 58.9303ZM70.1904 52.1686C69.4916 52.1686 68.9019 52.3264 68.4214 52.6644C67.9409 53.0025 67.5478 53.4082 67.2202 53.9041C66.9144 54.4 66.6741 54.9409 66.5213 55.5495C66.3684 56.1355 66.2592 56.699 66.2155 57.2399C66.8052 57.2624 67.4167 57.285 68.0501 57.3075C68.6835 57.3301 69.295 57.33 69.9065 57.33C70.5399 57.33 71.1733 57.3301 71.8066 57.3075C72.44 57.285 73.0734 57.2624 73.6849 57.2399C73.6849 56.7215 73.6412 56.158 73.5539 55.572C73.4665 54.986 73.2918 54.445 73.0515 53.9266C72.7895 53.4308 72.44 53.0025 71.9814 52.6644C71.5227 52.3489 70.933 52.1686 70.1904 52.1686Z" stroke="#252525" stroke-width="0.6" mask="url(#path-1-outside-1_3923_6273)"/>
<path d="M35.6808 43.2995C35.6808 43.2995 36.1924 37.2396 36.3629 33.194C36.397 32.5 35.8684 32.0091 35.1692 32.1107C31.3493 32.5339 28.6548 33.2786 24.8349 33.5833C25.4659 32.0599 26.7278 29.6901 25.176 28.6406C21.2879 25.4922 16.9222 21.9714 13 18.8229C13.3752 18.6536 20.4352 14.7773 20.4352 14.7773C20.4352 14.7773 23.5048 6.99089 23.5389 6.97396C25.2613 8.97135 27.0689 10.901 28.8254 12.8815C29.8315 14.1172 31.1105 13.3724 30.7694 12.069C30.0362 7.85417 29.2005 4.18099 28.4332 0C28.7913 0 38 2.89453 38 2.89453C38 2.89453 47.4816 0.0507812 47.5669 0.0169271C46.7824 4.14714 46.015 7.6849 45.2476 11.8151C45.0771 12.543 45.2988 13.8633 46.322 13.457C46.6289 13.3385 46.9359 13.1354 47.1576 12.8815C48.9482 10.9518 50.6705 8.95443 52.4611 7.00781C52.4782 7.02474 56.2299 14.7604 56.2299 14.7604C56.2299 14.7604 62.693 18.4167 63 18.8229C59.0948 22.0052 54.6439 25.543 50.7387 28.7083C49.2551 29.8086 50.5171 32.1445 51.1651 33.668C47.4304 33.2109 44.9066 32.6523 41.206 32.1615C40.0805 32.0091 39.6542 32.3984 39.6712 33.5495C39.7394 37.4935 40.1146 43.3333 40.1146 43.3333H35.6808V43.2995Z" fill="#E2042E"/>
</svg>
