<svg xmlns="http://www.w3.org/2000/svg" width="154" height="41" fill="none" xmlns:v="https://vecta.io/nano"><path d="M11.491 14.446c.005.567-.109 1.129-.334 1.653a4.27 4.27 0 0 1-.954 1.352 4.34 4.34 0 0 1-1.395.901 4.18 4.18 0 0 1-1.693.335 4.3 4.3 0 0 1-1.728-.335 4.42 4.42 0 0 1-1.383-.901 4.24 4.24 0 0 1-.946-1.379 4.13 4.13 0 0 1-.329-1.625v-4.091H0v4.091a6.67 6.67 0 0 0 .548 2.716 6.45 6.45 0 0 0 1.502 2.184 7.17 7.17 0 0 0 2.253 1.468 7.57 7.57 0 0 0 2.813.532 7.1 7.1 0 0 0 2.765-.543 7.43 7.43 0 0 0 2.253-1.491 6.93 6.93 0 0 0 1.538-2.184 6.55 6.55 0 0 0 .56-2.681V.405H11.49v14.042zM28.167 3.213h-2.515v2.496h2.515V3.213zm9.655-1.884L36.869 0l-3.695 2.554 1.144 1.537 3.505-2.762zm20.168 17.81v2.519h4.398 2.551v-2.519h-2.551-4.398zM83.022 7.35v6.021h-1.371a1.52 1.52 0 0 1-.606-.093 1.5 1.5 0 0 1-.515-.323c-.148-.154-.26-.337-.33-.536a1.45 1.45 0 0 1-.075-.62V7.905h-2.646v3.687a1.93 1.93 0 0 1-.548 1.237 1.67 1.67 0 0 1-.546.359 1.72 1.72 0 0 1-.646.126h-.501a2.17 2.17 0 0 1-.608-.185 1.52 1.52 0 0 1-.489-.416 1.13 1.13 0 0 1-.203-.74V7.998h-2.742v3.71c-.008.433-.187.847-.501 1.156a1.79 1.79 0 0 1-.599.37 1.84 1.84 0 0 1-.7.115h-3.457a1.67 1.67 0 0 1-.651-.133 1.62 1.62 0 0 1-.541-.375c-.161-.15-.289-.329-.377-.528s-.134-.412-.136-.628V7.408h-2.73v4.195c.004.233-.041.465-.131.681a1.74 1.74 0 0 1-.394.578 1.67 1.67 0 0 1-.541.378 1.71 1.71 0 0 1-.651.142h-8.213a1.68 1.68 0 0 1-.645-.113 1.63 1.63 0 0 1-.547-.349c-.341-.328-.537-.771-.548-1.237.074-1.187-.313-2.358-1.085-3.282a5.69 5.69 0 0 0-3.135-1.549l-2.015-.381-2.384-.416-2.718-.474 3.397-2.843-1.609-1.699-5.638 4.241v2.311L44.89 9.477a2.88 2.88 0 0 1 .668.196c.249.097.482.229.691.393a2.19 2.19 0 0 1 .525.67c.164.315.242.665.226 1.017a1.67 1.67 0 0 1-.542 1.149 1.78 1.78 0 0 1-1.21.469H30.05a1.67 1.67 0 0 1-.651-.133 1.62 1.62 0 0 1-.541-.375c-.161-.15-.289-.329-.377-.528s-.134-.412-.136-.628V7.431h-2.777v4.195a1.7 1.7 0 0 1-.131.681 1.74 1.74 0 0 1-.394.578 1.67 1.67 0 0 1-.541.378 1.71 1.71 0 0 1-.651.142h-2.944a1.83 1.83 0 0 1-.694-.116 1.78 1.78 0 0 1-.593-.369c-.161-.15-.289-.329-.377-.528a1.58 1.58 0 0 1-.136-.628V.439h-2.682v11.303a4.3 4.3 0 0 0 .346 1.63 4.24 4.24 0 0 0 .918 1.41 4.54 4.54 0 0 0 1.418.936 4.47 4.47 0 0 0 1.752.347h2.909c1.138.018 2.237-.397 3.063-1.156a3.66 3.66 0 0 0 1.657.971 8.35 8.35 0 0 0 2.038.231H45.2c.567.001 1.129-.101 1.657-.301a3.65 3.65 0 0 0 1.383-.901 4.36 4.36 0 0 0 1.443.88 4.47 4.47 0 0 0 1.68.275h8.213a4.45 4.45 0 0 0 3.063-1.156c.515.494 1.171.828 1.883.959a10.97 10.97 0 0 0 2.277.243h2.467c.608.013 1.213-.098 1.774-.327a4.32 4.32 0 0 0 1.48-1.002 4.32 4.32 0 0 0 1.43.948 4.52 4.52 0 0 0 1.693.335 4.29 4.29 0 0 0 1.711-.299 4.18 4.18 0 0 0 1.436-.949 4.25 4.25 0 0 0 1.428.938 4.36 4.36 0 0 0 1.695.31h3.886V7.35h-2.777zm-72.02 21.901a8.12 8.12 0 0 0-4.22-1.225c-1.669 0-2.849.636-2.849 1.734s1.287 1.375 3.075 1.664l.846.139c2.658.416 4.768 1.526 4.768 4.033 0 3.19-2.885 4.704-6.091 4.704-2.245.049-4.446-.613-6.27-1.884l1.55-2.311a8.03 8.03 0 0 0 4.768 1.56c1.645 0 2.92-.636 2.92-1.745s-1.085-1.375-3.147-1.687l-.954-.15C2.778 33.689.87 32.557.87 29.956c0-3.016 2.753-4.623 5.96-4.623 2.008-.029 3.983.505 5.686 1.537l-1.514 2.381zm7.999 10.794h-2.968V25.611h2.968v14.435zm16.914-12.481l-2.146 1.988a4.89 4.89 0 0 0-2.008-1.126 5 5 0 0 0-2.318-.093 4.92 4.92 0 0 0-2.097.961 4.72 4.72 0 0 0-1.397 1.796 4.58 4.58 0 0 0-.378 2.219c.061.758.311 1.491.729 2.136a4.79 4.79 0 0 0 1.668 1.563 4.95 4.95 0 0 0 2.226.633 3.9 3.9 0 0 0 2.764-.775c.782-.598 1.291-1.469 1.42-2.427h-3.802v-2.404h6.842a6.24 6.24 0 0 1 0 .809c0 4.369-3.051 7.454-7.271 7.454-1.262-.035-2.495-.369-3.592-.973a7.61 7.61 0 0 1-2.701-2.494c-.676-1.033-1.081-2.211-1.178-3.431s.116-2.444.621-3.566a7.51 7.51 0 0 1 2.274-2.866 7.83 7.83 0 0 1 3.396-1.497c1.242-.223 2.52-.145 3.723.224a7.76 7.76 0 0 1 3.179 1.891l.048-.023zm18.273 12.481h-2.789l-7.486-9.639v9.639h-3.039V25.611h2.777l7.557 9.639v-9.639h2.98v14.435zm17.856 0h-3.171l-1.299-3.363h-6.341l-1.299 3.363h-3.087l5.781-14.435h3.576l5.841 14.435zm-9.798-6.01h4.315l-2.145-5.582-2.169 5.582zm23.279 6.01H74.702V25.611h2.956v11.742h7.867v2.693z" fill="#777a7f"/><path d="M151.513 18.93c-.534 0-1.047-.206-1.424-.572s-.59-.863-.59-1.381v-2.311a1.92 1.92 0 0 1 .59-1.381 2.05 2.05 0 0 1 1.424-.572c.534 0 1.047.206 1.424.572s.59.863.59 1.381v2.311a1.92 1.92 0 0 1-.59 1.381 2.05 2.05 0 0 1-1.424.572zm-48.955 8.749a2.05 2.05 0 0 1-.772-.145 2.02 2.02 0 0 1-.656-.423 1.95 1.95 0 0 1-.436-.635c-.101-.238-.152-.492-.15-.749v-2.311a1.92 1.92 0 0 1 .59-1.381 2.05 2.05 0 0 1 2.849 0 1.92 1.92 0 0 1 .59 1.381v2.311a1.92 1.92 0 0 1-.59 1.381 2.05 2.05 0 0 1-1.425.572z" fill="#5dbd77"/><path d="M118.877 34.845c-.535 0-1.047-.206-1.425-.572s-.59-.863-.59-1.381V16.319c0-.256.052-.51.153-.747s.25-.452.437-.634.409-.325.654-.423a2.07 2.07 0 0 1 .771-.149c.264 0 .526.05.77.149s.467.242.654.423.335.397.437.634.153.491.153.747v16.573c0 .518-.212 1.015-.59 1.381s-.89.572-1.424.572z" fill="#3db769"/><path d="M127.03 37.572c-.269.006-.536-.04-.786-.135a2.02 2.02 0 0 1-.67-.42 1.95 1.95 0 0 1-.449-.639 1.89 1.89 0 0 1-.157-.758V4.831c0-.518.212-1.015.59-1.381s.89-.572 1.424-.572 1.047.206 1.424.572.59.863.59 1.381v30.788c.001.51-.205 1-.573 1.365s-.867.576-1.393.588z" fill="#22b466"/><path d="M110.664 30.927a2.05 2.05 0 0 1-1.425-.572c-.377-.366-.59-.863-.59-1.381v-8.749c0-.518.213-1.015.59-1.381a2.05 2.05 0 0 1 1.425-.572c.534 0 1.047.206 1.424.572s.59.863.59 1.381v8.749c.002.257-.049.512-.15.749s-.249.454-.436.635-.41.326-.655.423a2.06 2.06 0 0 1-.773.146z" fill="#46b86c"/><path d="M135.195 26.084a2.05 2.05 0 0 1-1.425-.572c-.377-.366-.59-.863-.59-1.381V7.593c0-.518.213-1.015.59-1.381a2.05 2.05 0 0 1 1.425-.572c.534 0 1.047.206 1.424.572s.59.863.59 1.381v16.538c0 .518-.212 1.015-.59 1.381s-.89.572-1.424.572z" fill="#3db769"/><path d="M143.36 22.178a2.06 2.06 0 0 1-1.429-.571c-.379-.366-.594-.863-.598-1.382v-8.749c.04-.494.269-.955.644-1.291a2.06 2.06 0 0 1 1.377-.523c.51 0 1.002.187 1.377.523s.604.797.643 1.291v8.749c0 .518-.212 1.015-.59 1.381s-.89.572-1.424.572z" fill="#46b86c"/></svg>