<svg width="584" height="329" viewBox="0 0 584 329" fill="none" xmlns="http://www.w3.org/2000/svg">
<path opacity="0.1" d="M273.841 329C374.179 329 455.52 315.825 455.52 299.573C455.52 283.321 374.179 270.146 273.841 270.146C173.502 270.146 92.1621 283.321 92.1621 299.573C92.1621 315.825 173.502 329 273.841 329Z" fill="#2A94F4"/>
<path d="M346.355 0H135.477V287.997H346.355V0Z" fill="#E2042E"/>
<path d="M381.486 299.573H170.607V50.4162L201.785 11.5759H381.486V299.573Z" fill="#F7F7F7"/>
<path d="M201.785 11.5759V50.4162H170.607L201.785 11.5759Z" fill="#F2F2F2"/>
<path d="M320.987 77.8024H206.316V82.2804H320.987V77.8024Z" fill="#E2042E"/>
<path d="M345.747 77.8024H326.889V82.2804H345.747V77.8024Z" fill="#E2042E"/>
<path d="M244.733 128.158H206.316V132.636H244.733V128.158Z" fill="#E2042E"/>
<path d="M345.777 128.158H249.234V132.636H345.777V128.158Z" fill="#E2042E"/>
<path d="M244.733 102.995H206.316V107.473H244.733V102.995Z" fill="#E2042E"/>
<path d="M294.465 102.995H253.25V107.473H294.465V102.995Z" fill="#E2042E"/>
<path d="M345.746 102.995H298.539V107.473H345.746V102.995Z" fill="#E2042E"/>
<path d="M231.081 182.986H345.752V178.508H231.081V182.986Z" fill="#E2042E"/>
<path d="M206.351 182.986H225.209V178.508H206.351V182.986Z" fill="#E2042E"/>
<path d="M231.081 208.147H345.752V203.669H231.081V208.147Z" fill="#E2042E"/>
<path d="M206.351 208.147H225.209V203.669H206.351V208.147Z" fill="#E2042E"/>
<path d="M307.342 157.794H345.758V153.316H307.342V157.794Z" fill="#E2042E"/>
<path d="M257.621 157.794H298.836V153.316H257.621V157.794Z" fill="#E2042E"/>
<path d="M206.35 157.794H253.557V153.316H206.35V157.794Z" fill="#E2042E"/>
<path d="M207.928 255.706L206.316 252.477C206.377 252.447 210.605 250.345 215.411 247.481C214.772 246.689 214.225 245.806 213.738 244.861C209.662 236.91 212.978 232.95 214.59 231.64C218.544 228.381 225.966 228.777 230.771 232.554C232.049 233.56 232.657 234.961 232.505 236.454C232.292 238.434 230.893 241.754 221.433 247.969C223.928 249.431 226.726 249.888 229.099 249.979C236.459 250.223 243.181 246.994 244.246 245.227L247.44 239.865L247.592 246.11C247.622 247.42 248.139 249.187 248.717 249.37C248.809 249.4 250.664 249.918 255.926 243.216L258.755 245.44C254.04 251.441 250.481 253.787 247.561 252.812C246.01 252.294 245.128 250.954 244.611 249.644C241.052 251.959 234.939 253.817 228.946 253.635C224.627 253.482 220.947 252.264 218.088 250.101C212.856 253.239 208.141 255.584 207.928 255.706ZM221.464 233.011C219.669 233.011 217.996 233.468 216.871 234.413C214.164 236.636 215.776 240.871 216.962 243.186C217.418 244.069 217.936 244.861 218.514 245.531C227.851 239.561 228.825 236.789 228.916 236.058C228.946 235.905 228.946 235.692 228.551 235.357C226.574 233.834 223.897 233.011 221.464 233.011Z" fill="#E2042E"/>
<path d="M354.354 69.6079C354.354 69.6079 345.776 59.8293 348.514 53.432C351.251 47.0348 360.072 47.9487 361.289 45.5117C362.505 43.0746 377.44 42.5568 378.596 48.6494C379.752 54.7419 388.481 68.694 375.767 73.3853C363.053 78.0766 354.354 69.6079 354.354 69.6079Z" fill="#0B4870"/>
<path d="M366.126 97.9689C366.126 97.9689 368.65 129.041 365.639 137.418C362.628 145.796 352.59 177.051 352.59 177.051L346.689 174.218C346.689 174.218 351.556 148.233 354.598 133.428C357.639 118.592 359.829 94.1915 363.966 84.8394L366.126 97.9689Z" fill="#DBA17B"/>
<path d="M370.991 156.366C370.991 156.366 367.676 196.669 367.676 203.675C367.676 210.682 367.676 285.347 367.676 285.347H376.497C376.497 285.347 385.926 220.735 386.23 211.9C386.534 203.066 394.229 165.871 394.229 165.871C394.229 165.871 401.073 132.209 370.991 156.366Z" fill="#E2042E"/>
<path d="M393.227 160.936C393.227 160.936 396.39 207.361 398.215 215.434C400.04 223.507 426.807 285.347 426.807 285.347H435.323C435.323 285.347 420.024 223.354 416.374 216.5C412.724 209.646 417.773 154.143 417.773 154.143L393.227 160.936Z" fill="#E2042E"/>
<path d="M372.879 76.6752C372.879 76.6752 407.067 49.1367 420.663 170.44H368.924C368.924 170.44 373.913 158.986 371.753 143.785C367.677 115.119 353.959 78.8381 372.879 76.6752Z" fill="#2A94F4"/>
<path d="M446.791 108.235L452.753 116.795L324.455 212.814L312.41 195.481L446.791 108.235Z" fill="#0B4870"/>
<path d="M324.789 212.57L311.832 221.618C308.212 224.146 303.224 223.263 300.699 219.638L297.779 215.434C295.254 211.809 296.137 206.813 299.756 204.285L312.714 195.237L324.789 212.57Z" fill="#0E538C"/>
<path d="M278.251 218.237L261.979 242.638L274.601 233.834C275.24 232.493 276.457 230.361 278.556 228.899C281.81 226.614 285.095 225.7 285.886 226.827C286.677 227.954 284.669 230.727 281.415 233.011C279.316 234.473 276.913 234.9 275.423 235.022L262.8 243.826L291.27 237.002C291.27 237.002 305.444 221.709 301.459 215.952C297.505 210.194 278.251 218.237 278.251 218.237Z" fill="#E2042E"/>
<path d="M389.911 98.2126L404.328 91.2975C404.328 91.2975 422.883 120.786 425.225 133.397C427.567 146.009 391.067 166.084 391.067 166.084L388.786 163.86C388.786 163.86 410.016 139.49 415.674 134.799L389.911 98.2126ZM388.786 163.86C388.786 163.86 387.691 163.251 384.649 163.86C381.607 164.47 377.957 168.521 377.957 168.521C377.957 168.521 375.889 169.892 383.432 168.125C383.432 168.125 375.311 174.766 372.269 177.051C369.228 179.335 380.877 182.382 391.067 166.084L388.786 163.86Z" fill="#DBA17B"/>
<path d="M394.169 106.986L408.617 96.994C408.617 96.994 399.492 73.5376 381.302 73.9945C378.23 74.0859 373.637 81.8844 394.169 106.986ZM356.908 112.043L369.622 114.267L367.615 78.6858C367.615 78.6858 361.714 81.5798 360.315 88.2512C358.855 94.9835 356.908 112.043 356.908 112.043Z" fill="#2A94F4"/>
<path d="M370.323 83.8036C370.323 83.8036 378.627 82.3719 377.715 77.4978L372.422 66.5311L365.518 70.7046L370.323 83.8036Z" fill="#D19574"/>
<path d="M352.316 61.7788C352.589 71.6488 361.289 79.5083 367.25 78.7772C375.402 77.7719 377.531 71.1005 377.044 66.8052C377.044 66.8052 378.778 64.6423 378.596 61.657C378.322 57.2398 375.523 57.6054 375.523 60.3471C375.523 64.9774 374.733 60.1338 374.124 56.5392C373.516 52.9446 370.231 64.49 364.482 62.9973C352.62 59.9815 352.042 51.9393 352.316 61.7788Z" fill="#DBA17B"/>
<path d="M367.707 285.347C367.707 285.347 366.856 288.819 363.145 289.398C357.001 290.373 350.765 290.799 349.974 294.699C349.153 298.598 349.974 297.745 349.974 297.745H369.259C369.259 297.745 372.3 295.613 374.734 297.745H379.387C379.387 297.745 378.384 290.099 378.171 288.88C377.958 287.631 376.559 285.347 376.559 285.347H367.707ZM426.624 285.347C426.624 285.347 428.145 288.18 422.062 289.398C415.978 290.647 409.682 290.799 408.891 294.699C408.07 298.598 408.891 297.745 408.891 297.745H428.176C428.176 297.745 431.217 295.613 433.651 297.745H438.304C438.304 297.745 437.301 290.099 437.088 288.88C436.875 287.631 435.476 285.347 435.476 285.347H426.624Z" fill="#0B4870"/>
<path d="M455.924 49.8215C460.301 49.8215 463.848 46.2797 463.848 41.9107C463.848 37.5418 460.301 34 455.924 34C451.548 34 448 37.5418 448 41.9107C448 46.2797 451.548 49.8215 455.924 49.8215Z" stroke="#0E538C" stroke-width="2" stroke-miterlimit="10"/>
<path d="M91.9242 51.8215C96.3006 51.8215 99.8483 48.2797 99.8483 43.9107C99.8483 39.5418 96.3006 36 91.9242 36C87.5478 36 84 39.5418 84 43.9107C84 48.2797 87.5478 51.8215 91.9242 51.8215Z" stroke="#0E538C" stroke-width="2" stroke-miterlimit="10"/>
<path d="M524.924 250.822C529.301 250.822 532.848 247.28 532.848 242.911C532.848 238.542 529.301 235 524.924 235C520.548 235 517 238.542 517 242.911C517 247.28 520.548 250.822 524.924 250.822Z" stroke="#0E538C" stroke-width="2" stroke-miterlimit="10"/>
</svg>
