<svg width="205" height="205" viewBox="0 0 205 205" fill="none" xmlns="http://www.w3.org/2000/svg">
<g clip-path="url(#clip0_5621_12131)">
<path d="M110.729 205V144.973C112.138 144.973 113.435 144.947 114.732 144.973C118.587 145.064 122.537 144.674 126.274 145.39C133.748 146.831 138.59 151.641 140.213 159.078C141.906 166.813 139.087 173.038 132.739 177.693L131.33 178.708L142.696 199.496L132.697 204.653C132.12 204.119 131.362 203.676 130.988 203.019C128.319 198.343 125.687 193.624 123.055 188.915L122.703 189.011V205H110.729ZM122.788 168.805C126.568 168.367 128.938 165.735 128.661 162.446C128.574 160.969 127.909 159.586 126.81 158.595C125.711 157.604 124.267 157.085 122.788 157.151V168.805Z" fill="#FEBE41"/>
<path d="M174.724 204.584L174.66 159.051C174.66 154.471 174.66 149.885 174.66 144.968C180.666 145.374 186.608 144.093 192.373 145.94C195.878 147.099 198.936 149.317 201.126 152.288C203.315 155.259 204.529 158.836 204.599 162.527C204.7 170.78 204.716 179.033 204.599 187.287C204.519 191.452 202.991 195.46 200.276 198.62C197.562 201.781 193.831 203.897 189.726 204.605C189.358 204.703 189.001 204.835 188.658 205H187.857C187.255 204.813 186.637 204.684 186.01 204.616C182.262 204.578 178.493 204.589 174.724 204.584ZM186.747 192.887C190.366 192.294 192.566 190.218 192.619 187.137C192.715 178.953 192.726 170.769 192.619 162.58C192.571 159.297 189.683 156.868 186.773 157.295L186.747 192.887Z" fill="#FEBE41"/>
<path d="M37.1716 205C34.2995 203.833 31.4256 202.667 28.5499 201.503C27.8772 201.237 27.1939 200.97 26.3184 200.676C27.7491 196.816 29.1371 193.031 30.5518 189.257C32.3296 184.527 34.2087 179.834 35.853 175.062C36.2508 173.835 36.2508 172.514 35.853 171.287C32.9648 163.279 29.9219 155.341 26.9376 147.376C26.7508 146.885 26.5799 146.394 26.3504 145.774C29.8098 144.466 33.1303 143.159 36.4936 142.037C36.8727 141.909 37.8603 142.619 38.0952 143.137C39.5099 146.65 40.7645 150.216 42.1258 153.761C42.3714 154.418 42.6596 155.063 43.0547 156.024L48.5053 141.61L59.7163 145.742C58.5258 148.972 57.3994 152.074 56.2462 155.165C54.1749 160.701 52.0341 166.221 50.0428 171.789C49.7214 172.765 49.7214 173.819 50.0428 174.795C52.9523 182.803 55.974 190.741 58.9529 198.706C59.1824 199.315 59.3746 199.939 59.6415 200.719L49.1727 204.739C48.7616 204.306 48.1744 203.949 47.9662 203.436C46.9678 200.98 46.0816 198.477 45.1421 195.999C44.4854 194.264 43.8021 192.545 42.9479 190.346C41.0314 195.594 39.307 200.318 37.5773 205.043L37.1716 205Z" fill="#FEDE41"/>
<path d="M95.1387 205V145.064H102.335C102.335 165.041 102.335 185.019 102.335 205H95.1387Z" fill="#FEDE40"/>
<path d="M102.328 205C102.328 185.023 102.328 165.044 102.328 145.064H107.133V205H102.328Z" fill="#FEBD40"/>
<path d="M122.717 205V189.011L123.069 188.915C125.701 193.624 128.312 198.343 131.002 203.019C131.376 203.676 132.134 204.114 132.711 204.653V205H122.717Z" fill="#FEFDFC"/>
<path d="M-0.00104346 145.048L0.404687 145.08C0.404687 164.914 0.404687 184.749 0.404687 204.583H-0.0117188L-0.00104346 145.048Z" fill="#FEE35B"/>
<path d="M0 204.6H0.416406H23.938L23.9861 205.016C16.448 205.016 8.91358 205.016 1.38268 205.016C0.905706 204.938 0.440929 204.798 0 204.6Z" fill="#FEE773"/>
<path d="M170.604 204.573L170.684 205H146.703C146.703 204.862 146.735 204.717 146.757 204.579L170.604 204.573Z" fill="#FECE73"/>
<path d="M174.724 204.583C178.493 204.583 182.262 204.583 186.026 204.616C186.653 204.684 187.271 204.813 187.873 205H174.682L174.724 204.583Z" fill="#FECF74"/>
<path d="M73.4902 204.578L73.549 205H61.5586L61.6227 204.578H73.4902Z" fill="#FEE773"/>
<path d="M48.3086 120.251C48.3086 119.717 48.378 119.183 48.378 118.649C48.378 83.6178 48.378 48.588 48.378 13.5601C48.378 13.1597 48.346 12.7593 48.3299 12.3643H60.4057C60.4057 12.6952 60.3684 13.0262 60.3684 13.3626C60.3684 48.4546 60.3684 83.5448 60.3684 118.633C60.3684 119.167 60.4111 119.701 60.4378 120.235L48.3086 120.251Z" fill="#3D4B66"/>
<path d="M156.323 12.3745C156.323 20.4944 156.28 28.6197 156.28 36.745C156.28 63.7081 156.28 90.6767 156.28 117.651C156.28 118.515 156.344 119.375 156.381 120.24H144.193C144.225 119.439 144.284 118.638 144.284 117.848C144.284 95.9458 144.284 74.04 144.284 52.1306C144.284 38.8875 144.272 25.639 144.247 12.3852L156.323 12.3745Z" fill="#2E384D"/>
<path d="M73.4888 204.578H61.6212C61.5999 188.477 61.5803 172.378 61.5625 156.28C61.5625 152.629 61.5625 148.983 61.5625 145.219C62.0282 145.116 62.5012 145.05 62.9772 145.021C67.8887 145.16 72.9016 144.739 77.6849 145.593C86.1411 147.109 91.8427 155.09 91.517 163.835C91.2074 172.211 84.7638 179.354 76.3449 180.656C75.4907 180.784 74.6419 180.928 73.4888 181.121V204.578ZM73.6383 168.895C77.6422 168.33 80.0445 165.463 79.5107 162.094C79.0409 159.035 76.3716 156.841 73.6383 157.289V168.895Z" fill="#FEDE40"/>
<path d="M170.605 204.573H146.757L146.693 159.457C146.693 154.743 146.693 150.024 146.693 145.155H170.551V156.948H158.807V168.954H164.588V180.88H158.839V192.892H170.583L170.605 204.573Z" fill="#FEBD40"/>
<path d="M23.9376 204.583H0.416016C0.416016 184.745 0.416016 164.911 0.416016 145.08H23.8629V156.926H12.1448V168.938H17.8944V180.88H12.1768V192.903H23.9216L23.9376 204.583Z" fill="#FEDE40"/>
<path d="M60.4118 12.38H36.5059V0.56045C36.9082 0.470339 37.3169 0.411439 37.7284 0.384277C59.0826 0.384277 80.4225 0.384277 101.748 0.384277C101.946 0.384277 102.143 0.42165 102.341 0.437666V12.3052C101.214 12.3052 100.088 12.3586 98.9615 12.3586L72.3328 12.428L60.4118 12.38Z" fill="#4D5E7F"/>
<path d="M102.357 12.3052V0.437631C109.873 0.416276 117.39 0.396701 124.907 0.378906C139.273 0.378906 153.639 0.378906 168.149 0.378906V12.3799H144.254L132.322 12.428H102.309L102.357 12.3052Z" fill="#3D4B65"/>
<path d="M48.3095 120.251H60.444L72.3596 120.17L72.5411 120.218L72.728 120.17C73.5875 120.17 74.447 120.234 75.3118 120.24L102.336 120.293C102.336 124.254 102.336 128.214 102.336 132.171L49.484 132.225H36.4473V120.678L36.7783 120.299L48.3095 120.251Z" fill="#4D5E7F"/>
<path d="M102.345 132.166C102.345 128.205 102.345 124.246 102.345 120.288L102.303 120.144L132.321 120.101L144.205 120.235H168.292C168.292 123.945 168.335 127.522 168.239 131.093C168.239 131.488 167.492 131.974 166.995 132.209C166.543 132.313 166.075 132.326 165.618 132.246H104.529C103.803 132.246 103.071 132.193 102.345 132.166Z" fill="#3D4B65"/>
<path d="M36.7783 120.299L36.4473 120.678L36.7783 120.299Z" fill="#697894"/>
<path d="M72.3581 120.176L60.4425 120.256C60.4158 119.722 60.373 119.188 60.373 118.654C60.373 83.5658 60.373 48.4756 60.373 13.3836C60.373 13.0472 60.3731 12.7162 60.4104 12.3853L72.3474 12.4333C72.3474 20.1528 72.5182 27.8724 72.2993 35.5812C72.1178 41.9875 74.4775 47.1605 78.9619 51.5648C83.4462 55.9691 87.7224 60.304 92.0947 64.6816C92.5965 65.1834 93.0716 65.7173 94.0913 66.817C93.3685 67.1567 92.6848 67.5738 92.052 68.0609C87.4608 72.5987 82.9337 77.2005 78.3372 81.7276C74.2372 85.7635 72.1766 90.5896 72.3688 96.3552C72.3688 104.21 72.3865 112.061 72.4221 119.909C72.3682 119.987 72.3453 120.082 72.3581 120.176Z" fill="#FEFEFE"/>
<path d="M144.194 120.235L132.31 120.101V96.3129C132.54 90.6167 130.506 85.8387 126.475 81.8401C121.793 77.2063 117.154 72.535 112.499 67.8692C112.003 67.378 111.554 66.8388 110.988 66.2142C116.273 60.9184 121.398 55.8094 126.523 50.7004C128.396 48.9049 129.876 46.7406 130.871 44.3443C131.865 41.9479 132.351 39.3714 132.3 36.7775C132.3 28.6629 132.3 20.5483 132.3 12.4284L144.231 12.3804C144.231 25.6306 144.244 38.8791 144.269 52.1258C144.269 74.0316 144.269 95.9374 144.269 117.843C144.285 118.639 144.226 119.434 144.194 120.235Z" fill="#FEFEFE"/>
<path d="M72.3699 96.3288C72.1777 90.5632 74.2384 85.7372 78.3384 81.7012C82.9349 77.1741 87.4619 72.5723 92.0531 68.0346C92.6859 67.5474 93.3697 67.1304 94.0924 66.7907C93.0728 65.723 92.5976 65.1891 92.0958 64.6553C87.7235 60.2777 83.3726 55.8734 78.963 51.5385C74.5534 47.2036 72.119 41.9825 72.3005 35.5549C72.5194 27.846 72.3485 20.1265 72.3485 12.407L98.9772 12.3376C100.104 12.3376 101.23 12.3055 102.356 12.2842L102.308 12.3963C102.308 13.3305 102.308 14.2594 102.308 15.1883V96.142C101.518 96.1794 100.707 96.2434 99.9381 96.2434L72.3699 96.3288Z" fill="#F8F3F2"/>
<path d="M102.345 96.1524V15.1988C102.345 14.2699 102.345 13.341 102.345 12.4067H132.359C132.359 20.5267 132.332 28.6412 132.359 36.7558C132.406 39.3576 131.911 41.9408 130.907 44.3413C129.902 46.7418 128.41 48.9072 126.524 50.7001C121.383 55.8091 116.258 60.9341 110.957 66.2139C111.522 66.8385 111.971 67.3777 112.467 67.8688C117.123 72.5347 121.762 77.206 126.444 81.8398C130.474 85.8384 132.508 90.6164 132.279 96.3126L102.303 96.3393L102.345 96.1524Z" fill="#EFE5E0"/>
<path d="M72.3691 96.3286L99.9747 96.2645C100.765 96.2645 101.576 96.2005 102.345 96.1631V96.3393C102.345 104.272 102.336 112.207 102.318 120.144L102.361 120.288L75.3374 120.235C74.4725 120.235 73.613 120.187 72.7535 120.165L72.4492 119.882C72.4101 112.031 72.3834 104.18 72.3691 96.3286Z" fill="#FF4D5B"/>
<path d="M72.423 119.882L72.7273 120.165L72.5405 120.213L72.359 120.165C72.3506 120.116 72.3519 120.066 72.3629 120.017C72.3739 119.969 72.3943 119.923 72.423 119.882Z" fill="#FDBD40"/>
<path d="M102.291 120.144C102.291 112.211 102.3 104.276 102.318 96.3392L132.294 96.3125V120.101L102.291 120.144Z" fill="#E2042E"/>
</g>
<defs>
<clipPath id="clip0_5621_12131">
<rect width="205" height="205" fill="white"/>
</clipPath>
</defs>
</svg>
