<svg width="322" height="303" viewBox="0 0 322 303" fill="none" xmlns="http://www.w3.org/2000/svg">
<path d="M296.515 82.8432C255.374 51.352 215.469 77.016 170.958 67.943C126.128 58.8039 108.266 28.3698 57.2059 42.4182C11.9724 54.8632 -15.4726 104.752 9.39386 146.521C16.48 158.424 28.5496 167.403 33.4752 180.721C41.4326 202.206 29.3205 218.699 31.683 239.812C41.5011 327.536 176.065 293.558 225.573 266.264C303.235 223.461 355.767 128.199 296.515 82.8432Z" fill="#FBE0E5"/>
<path d="M172.212 5.00668C217.702 23.8877 215.524 68.8989 244.148 101.196C272.979 133.727 306.534 133.956 319.227 182.631C330.471 225.748 302.426 272.029 256.207 271.425C243.035 271.254 229.902 265.591 216.596 267.861C195.119 271.526 187.29 289.327 168.785 297.413C91.8571 331.029 55.8998 204.201 54.8514 150.508C53.2056 66.2997 106.701 -22.177 172.212 5.00668Z" fill="#FDEEF1"/>
<path d="M102.508 47.0776H205.985V238.76H102.508V47.0776Z" fill="white"/>
<path d="M199.291 48.4263H206.864V240.109H199.291V48.4263Z" fill="#F5F5F5"/>
<path d="M156.188 210.746C150.618 210.746 146.104 215.259 146.104 220.826C146.104 226.392 150.618 230.904 156.188 230.904C161.76 230.904 166.275 226.392 166.275 220.826C166.263 215.264 161.755 210.758 156.188 210.746ZM156.188 225.879C153.402 225.873 151.146 223.61 151.152 220.826C151.158 218.039 153.422 215.785 156.21 215.791C158.989 215.797 161.24 218.047 161.246 220.826C161.249 223.613 158.988 225.876 156.198 225.879H156.188Z" fill="#275075"/>
<path d="M142.309 59.933H155.799C157.662 59.933 159.171 58.424 159.171 56.5634C159.171 54.7016 157.662 53.1914 155.799 53.1914H142.309C140.446 53.1914 138.938 54.7016 138.938 56.5634C138.938 58.424 140.446 59.933 142.309 59.933Z" fill="#275075"/>
<path d="M165.914 59.933H169.285C171.148 59.933 172.659 58.424 172.659 56.5634C172.659 54.7016 171.148 53.1914 169.285 53.1914H165.914C164.052 53.1914 162.541 54.7016 162.541 56.5634C162.541 58.424 164.052 59.933 165.914 59.933Z" fill="#275075"/>
<path d="M210.695 238.554L210.71 238.525C211.127 237.883 211.492 237.211 211.803 236.513C211.881 236.34 211.958 236.172 212.03 236C212.102 235.827 212.175 235.7 212.237 235.541C212.265 235.415 212.283 235.287 212.293 235.158C212.834 233.646 213.119 232.053 213.138 230.449V140.337C213.238 138.426 213.238 136.51 213.138 134.598V57.9282C213.127 49.7307 206.48 43.0893 198.278 43.0811H113.326C105.125 43.0917 98.4794 49.733 98.4688 57.9282V230.446C98.4782 238.643 105.124 245.285 113.326 245.296H199.961C200.454 245.29 200.939 245.174 201.383 244.957C203.319 244.539 205.153 243.734 206.77 242.591L210.695 238.554ZM105.213 70.0429H206.388V198.11H105.213V70.0429ZM113.326 49.8215H198.272C202.75 49.8262 206.381 53.4531 206.387 57.9282V63.3024H105.213V57.9282C105.217 53.4531 108.848 49.8262 113.326 49.8215ZM198.278 238.554H113.326C108.848 238.551 105.217 234.924 105.213 230.449V204.853H206.388V230.446C206.371 234.917 202.752 238.537 198.278 238.554Z" fill="#275075"/>
<path d="M59.2207 121.569C61.3115 121.569 63.0058 123.264 63.0058 125.352C63.0058 127.441 61.3115 129.135 59.2207 129.135C57.1298 129.135 55.4355 127.441 55.4355 125.352C55.4355 123.264 57.1298 121.569 59.2207 121.569Z" fill="#E2042E"/>
<path d="M243.457 66.0815C245.548 66.0815 247.242 67.7758 247.242 69.8641C247.242 71.9536 245.548 73.6467 243.457 73.6467C241.366 73.6467 239.672 71.9536 239.672 69.8641C239.672 67.7758 241.366 66.0815 243.457 66.0815Z" fill="#E2042E"/>
<path d="M229.577 214.887C230.971 214.887 232.101 216.016 232.101 217.41C232.101 218.801 230.971 219.93 229.577 219.93C228.183 219.93 227.053 218.801 227.053 217.41C227.053 216.016 228.183 214.887 229.577 214.887Z" fill="#E2042E"/>
<path d="M234.625 113.537C236.275 113.537 237.613 114.874 237.613 116.523C237.613 118.173 236.275 119.509 234.625 119.509C232.974 119.509 231.637 118.173 231.637 116.523C231.637 114.874 232.974 113.537 234.625 113.537Z" stroke="#E2042E"/>
<path d="M70.5784 216.944C72.229 216.944 73.5666 218.282 73.5666 219.931C73.5666 221.581 72.229 222.917 70.5784 222.917C68.9279 222.917 67.5879 221.581 67.5879 219.931C67.5879 218.282 68.9279 216.944 70.5784 216.944Z" stroke="#E2042E"/>
<g opacity="0.98">
<path opacity="0.98" d="M153.458 107.734C174.309 107.734 191.238 124.652 191.238 145.489C191.238 166.326 174.309 183.245 153.458 183.245C132.607 183.245 115.678 166.326 115.678 145.489C115.678 124.652 132.607 107.734 153.458 107.734Z" fill="#6DCC5B"/>
</g>
<path d="M153.458 110.094C173.006 110.094 188.877 125.955 188.877 145.49C188.877 165.024 173.006 180.885 153.458 180.885C133.91 180.885 118.039 165.024 118.039 145.49C118.039 125.955 133.91 110.094 153.458 110.094Z" stroke="#6DCC5B" stroke-width="3" stroke-linecap="round" stroke-linejoin="round"/>
<g opacity="0.143084">
<path opacity="0.143084" d="M153.458 107.734C174.309 107.734 191.238 124.652 191.238 145.489C191.238 166.326 174.309 183.245 153.458 183.245C132.607 183.245 115.678 166.326 115.678 145.489C115.678 124.652 132.607 107.734 153.458 107.734Z" fill="#87F572"/>
</g>
<path d="M136.41 147.849L145.56 157.288L170.501 133.691" stroke="white" stroke-width="3" stroke-linecap="round" stroke-linejoin="round"/>
</svg>
